<?xml version="1.0" encoding="UTF-8"?>
<svg width="40px" height="40px" viewBox="0 0 40 40" version="1.1" xmlns="http://www.w3.org/2000/svg" xmlns:xlink="http://www.w3.org/1999/xlink">
    <!-- Generator: Sketch 55 (78076) - https://sketchapp.com -->
    <title>Construction All Risk</title>
    <desc>Created with Sketch.</desc>
    <g id="Page-1" stroke="none" stroke-width="1" fill="none" fill-rule="evenodd">
        <g id="Artboard-Copy-3" fill-rule="nonzero">
            <path d="M34.1968504,30.7860697 L34.1968504,25.5721393 L37.7165354,25.5721393 C38.2688202,25.5721393 38.7165354,25.1244241 38.7165354,24.5721393 L38.7165354,8.30348259 C38.7165354,7.75119784 38.2688202,7.30348259 37.7165354,7.30348259 L25.4189785,7.30348259 C24.9821938,7.30348259 24.5959445,7.58696607 24.4649848,8.00365591 L23.9370079,9.68358209 L2.64632201,4.23589162 C2.12993616,4.10376293 1.60067771,4.39988638 1.44312134,4.90909 L0.482004614,8.01530587 C0.326083225,8.51922541 0.588391166,9.0576011 1.0813249,9.24538479 L7.7480315,11.7850746 L7.7480315,17.1661692 C6.55905512,17.4208955 5.15748031,19.0686567 6.13385827,20.9233831 L0.67596763,24.1388023 C0.542715492,24.2173055 0.39087775,24.2587065 0.236220472,24.2587065 L0.236220472,24.2587065 C0.105759508,24.2587065 3.95307045e-15,24.364466 3.96904731e-15,24.4949269 L-3.33066907e-16,35 C1.69667805e-15,35.5522847 0.44771525,36 1,36 L15.7716535,36 C16.3239383,36 16.7716535,35.5522847 16.7716535,35 L16.7716535,24.4949269 C16.7716535,24.364466 16.665894,24.2587065 16.5354331,24.2587065 L16.5354331,24.2587065 C16.3807823,24.2587065 16.2289576,24.2172594 16.095759,24.1386784 L10.6456693,20.9233831 C10.8425197,20.5572139 10.9685039,20.1432836 10.9685039,19.6895522 L9.67716535,19.6895522 C9.67716535,19.8965174 9.62204724,20.0875622 9.53543307,20.2626866 L8.38582677,19.5860697 L7.23622047,20.2626866 C6.70866142,19.2039801 7.67716535,18.3840796 8.38582677,18.3840796 L9.03149606,18.3840796 L9.03149606,12.278607 L21.6299213,17.0865672 L20.7141803,20.0080357 C20.6844209,20.1029761 20.668997,20.2018262 20.6684181,20.3013198 L20.6436478,24.5583605 C20.6404343,25.1106359 21.0855369,25.5609487 21.6378123,25.5641622 C21.6397518,25.5641735 21.6416913,25.5641791 21.6436309,25.5641791 L25.1574803,25.5641791 L25.1574803,30.7781095 L20.3543307,30.7781095 C19.802046,30.7781095 19.3543307,31.2258247 19.3543307,31.7781095 L19.3543307,35 C19.3543307,35.5522847 19.802046,36 20.3543307,36 L39,36 C39.5522847,36 40,35.5522847 40,35 L40,31.7860697 C40,31.2337849 39.5522847,30.7860697 39,30.7860697 L34.1968504,30.7860697 Z M3.03149606,24.2587065 L7.03149606,21.9024876 C8.27559055,22.6746269 9.35433071,22.1492537 9.7480315,21.9024876 L13.7480315,24.2587065 L3.03149606,24.2587065 Z M1.63985038,8.2366812 L2.48450759,5.4457859 L23.503937,10.9174129 L23.5511811,10.9253731 L22.015748,15.8368159 L1.63985038,8.2366812 Z M21.9370079,24.2587065 L21.9370079,20.4457711 L25.6377953,8.60895522 L37.4251969,8.60895522 L37.4251969,24.2587065 L21.9370079,24.2587065 Z M26.4488189,25.5641791 L32.8976378,25.5641791 L32.8976378,30.7781095 L26.4488189,30.7781095 L26.4488189,25.5641791 Z" id="Shape" fill="#2684FF" transform="translate(20.000000, 20.102239) scale(-1, 1) translate(-20.000000, -20.102239) "></path>
            <path d="M14.7007874,10.5671642 L8.22875479,10.5671642 C7.78132417,10.5671642 7.38834563,10.8643793 7.26652994,11.2949082 L4.87966261,19.7307291 C4.72929976,20.2621512 5.03820933,20.8148471 5.56963144,20.9652099 C5.65821207,20.9902733 5.74982931,21.0029851 5.84188746,21.0029851 L14.7007874,21.0029851 C15.2530722,21.0029851 15.7007874,20.5552698 15.7007874,20.0029851 L15.7007874,11.5671642 C15.7007874,11.0148794 15.2530722,10.5671642 14.7007874,10.5671642 Z" id="Shape" fill="#2684FF" transform="translate(10.110236, 15.785075) scale(-1, 1) translate(-10.110236, -15.785075) "></path>
            <path d="M38.7007874,34.6945274 L25.511811,34.6945274 C24.9595263,34.6945274 24.511811,34.2468121 24.511811,33.6945274 L24.511811,26.5641791 C24.511811,26.0118944 24.9595263,25.5641791 25.511811,25.5641791 L37.7086614,25.5641791 C38.2609462,25.5641791 38.7086614,26.0118944 38.7086614,26.5641791 L38.7086614,34.6905904 C38.7086614,34.6927647 38.7068988,34.6945274 38.7047244,34.6945274 Z" id="Path" fill="#FFFFFF" transform="translate(31.610236, 30.129353) scale(-1, 1) translate(-31.610236, -30.129353) "></path>
            <polygon id="Path" fill="#DEEBFF" transform="translate(10.322835, 33.389055) scale(-1, 1) translate(-10.322835, -33.389055) " points="19.3543307 34.6945274 1.29133858 34.6945274 1.29133858 32.0835821 19.3543307 32.0835821"></polygon>
            <path d="M38.7007874,34.6945274 L25.511811,34.6945274 C24.9595263,34.6945274 24.511811,34.2468121 24.511811,33.6945274 L24.511811,27.0807574 C27.0858099,27.1180475 29.5475445,27.6295306 31.8970148,28.6152069 C34.2464851,29.6008831 36.517034,31.0747408 38.7086614,33.0367799 L38.7086614,34.6945274 Z" id="Path" fill="#DEEBFF" transform="translate(31.610236, 30.887642) scale(-1, 1) translate(-31.610236, -30.887642) "></path>
            <path d="M12.984252,19.6975124 L7.12512353,19.6975124 C6.57283878,19.6975124 6.12512353,19.2497972 6.12512353,18.6975124 C6.12512353,18.60551 6.13781992,18.5139476 6.16285342,18.4254164 L7.80992249,12.6005408 C7.93168336,12.1699324 8.3247003,11.8726368 8.7721926,11.8726368 L12.984252,11.8726368 C13.5365367,11.8726368 13.984252,12.3203521 13.984252,12.8726368 L13.984252,18.6975124 C13.984252,19.2497972 13.5365367,19.6975124 12.984252,19.6975124 Z" id="Path" fill="#DEEBFF" transform="translate(9.893701, 15.785075) scale(-1, 1) translate(-9.893701, -15.785075) "></path>
        </g>
    </g>
</svg>