<?xml version="1.0" encoding="UTF-8"?>
<svg width="40px" height="40px" viewBox="0 0 40 40" version="1.1" xmlns="http://www.w3.org/2000/svg" xmlns:xlink="http://www.w3.org/1999/xlink">
    <!-- Generator: Sketch 55 (78076) - https://sketchapp.com -->
    <title>Contrator’s Plant &amp; Machinery</title>
    <desc>Created with Sketch.</desc>
    <g id="Page-1" stroke="none" stroke-width="1" fill="none" fill-rule="evenodd">
        <g id="Artboard-Copy-6" fill-rule="nonzero">
            <g id="Group-3" transform="translate(1.000000, 1.000000)">
                <g id="Group-2" transform="translate(3.000000, 4.400622)">
                    <path d="M14.976758,25.5412506 L19.9719438,25.5412506 C20.6269621,25.5412506 21.1580422,24.9940199 21.1580422,24.3190822 L21.1580422,22.0776445 C21.1580422,22.0102104 21.1528299,21.9427764 21.1421156,21.875939 L19.9719438,14.6395126 C19.8781216,14.0493152 19.3823695,13.6166628 18.801772,13.618453 L14.976758,13.71911 C14.3217398,13.71911 13.7906596,14.2663407 13.7906596,14.9412783 L13.7906596,24.3190822 C13.7906596,24.9940199 14.3217398,25.5412506 14.976758,25.5412506 Z" id="Shape" fill="#DEEBFF"></path>
                    <polygon id="Path-18" fill="#DEEBFF" points="31.6250425 17.0232778 28.3443681 23.9984561 25.8960775 24.9754355 27.632006 26.9319761 31.6250425 26.9319761 34.5511645 23.9984561 35.1522748 20.4633605 33.5153203 17.5329388"></polygon>
                    <path d="M32.0075724,15.9971811 L30.87186,12.9149059 C30.8915511,12.5243252 30.8003351,12.1361316 30.6089261,11.7983643 L24.5793994,1.28461326 C24.5594188,1.24492854 24.5463879,1.20285685 24.5243802,1.1625754 C24.4056545,0.965942333 24.2597088,0.788107364 24.0908867,0.635037879 C23.5354822,0.0821379985 22.7388619,-0.129414076 21.9932068,0.0785574271 C21.7653114,0.129580589 21.5463929,0.216409388 21.3439801,0.335761768 L9.59361341,7.48795317 L5.50945029,19.5109151 L5.33744289,19.5109151 C4.35491558,19.5109151 3.55829526,20.3317611 3.55829526,21.3441677 L3.55829526,24.3995886 C3.55829526,25.4119952 4.35491558,26.2328412 5.33744289,26.2328412 L7.11659052,26.2328412 L7.11659052,27.4550095 L2.96524605,27.4550095 C1.32770048,27.4550095 1.63424829e-13,28.8230862 1.63424829e-13,30.5104305 C1.63424829e-13,32.1977747 1.32770048,33.5658514 2.96524605,33.5658514 L21.9428208,33.5658514 C23.5803663,33.5658514 24.9080668,32.1977747 24.9080668,30.5104305 C24.9080668,28.8230862 23.5803663,27.4550095 21.9428208,27.4550095 L17.7914763,27.4550095 L17.7914763,26.2328412 L21.9428208,26.2328412 L21.9428208,20.7330835 L20.9139615,14.3208769 C20.7729385,13.435879 20.0296,12.7869005 19.1591381,12.7889891 L14.8262303,12.7889891 C13.8437029,12.7889891 13.0470826,13.6098351 13.0470826,14.6222416 L13.0470826,19.5109151 L11.4344405,19.5109151 L13.563105,10.7388136 L21.9043073,5.58129894 L27.308642,13.9347719 C27.4676186,14.1743719 27.6758229,14.3754807 27.9184865,14.5231792 L30.2721506,17.9220366 L27.887502,23.5441305 L24.4928166,25.0106728 L25.0621206,25.6509983 C26.2157867,26.9420927 27.8408805,27.6767066 29.5438699,27.677005 C32.8473394,27.7038593 35.5484932,24.970093 35.5812151,21.5661631 C35.5774507,19.1406244 34.1718546,16.9505082 32.0075724,15.9971811 Z M19.5859714,28.6771779 C18.7748724,29.7564219 18.7748724,31.2644391 19.5859714,32.343683 L5.32209544,32.343683 C6.13319447,31.2644391 6.13319447,29.7564219 5.32209544,28.6771779 L19.5859714,28.6771779 Z M16.6053779,27.4550095 L8.30268894,27.4550095 L8.30268894,26.2328412 L16.6053779,26.2328412 L16.6053779,27.4550095 Z M14.233181,14.6222416 C14.233181,14.2847728 14.4987211,14.0111575 14.8262303,14.0111575 L19.1591381,14.0111575 C19.4490025,14.0114559 19.6962994,14.2274837 19.7437897,14.5219856 L20.7567224,20.7838083 L20.7567224,25.0106728 L14.233181,25.0106728 L14.233181,14.6222416 Z M13.0470826,20.7330835 L13.0470826,25.0106728 L5.33744289,25.0106728 C5.00993376,25.0106728 4.74439368,24.7370575 4.74439368,24.3995886 L4.74439368,21.3441677 C4.74439368,21.0066989 5.00993376,20.7330835 5.33744289,20.7330835 L13.0470826,20.7330835 Z M12.5310603,9.95049113 L10.2118556,19.5109151 L6.76678415,19.5109151 L10.5700597,8.31267812 L21.9468749,1.38546599 C21.9570099,1.37949837 21.9677242,1.37651452 21.9778593,1.37084534 L21.9819134,1.37830484 C22.0728398,1.32310439 22.1707162,1.28192778 22.2732256,1.25596869 C22.6236112,1.17421227 22.9910816,1.26671033 23.2653089,1.50601189 C23.3495752,1.58120389 23.4219689,1.66952465 23.4798839,1.7673936 L23.5624127,1.91121318 C23.8076825,2.45366979 23.6142466,3.0990678 23.1153092,3.40520662 L12.5310603,9.95049113 Z M22.9224524,4.9517151 L23.7254433,4.45491084 C24.0601918,4.24514901 24.3370253,3.95064699 24.5301717,3.59945263 L29.5878853,12.4222789 C29.6958968,12.610259 29.7231168,12.835835 29.6631748,13.0452983 C29.6032328,13.2544634 29.4613411,13.4287178 29.2716696,13.5259901 C28.9273652,13.7023332 28.5095087,13.5880533 28.2955129,13.2589391 L22.9224524,4.9517151 Z M29.5143333,14.724288 C29.7468619,14.6634183 29.9628847,14.54884 30.1464751,14.3895046 L30.9019758,16.4390833 L30.8261072,16.6187086 L29.5143333,14.724288 Z M29.5456074,26.4572236 C28.4770763,26.4566269 27.4377924,26.0973762 26.5852841,25.4334787 L28.7843152,24.4816434 L31.0757207,19.0830369 L31.6687699,17.6776626 L31.8468584,17.2653001 C33.4114311,18.0947992 34.3954063,19.7552891 34.3968542,21.5685502 C34.3644218,24.2975424 32.1940586,26.4843763 29.5456074,26.4572236 L29.5456074,26.4572236 Z" id="Shape" fill="#2684FF"></path>
                    <path d="M1.18609842,30.5104305 C1.18609842,29.4980239 1.98271874,28.6771779 2.96524605,28.6771779 C3.94777336,28.6771779 4.74439368,29.4980239 4.74439368,30.5104305 C4.74439368,31.5228371 3.94777336,32.343683 2.96524605,32.343683 C1.98271874,32.343683 1.18609842,31.5228371 1.18609842,30.5104305 Z" id="Path" fill="#DEEBFF"></path>
                    <path d="M23.7219684,30.5104305 C23.7219684,31.5228371 22.9253481,32.343683 21.9428208,32.343683 C20.9602935,32.343683 20.1636731,31.5228371 20.1636731,30.5104305 C20.1636731,29.4980239 20.9602935,28.6771779 21.9428208,28.6771779 C22.9253481,28.6771779 23.7219684,29.4980239 23.7219684,30.5104305 Z" id="Path" fill="#DEEBFF"></path>
                </g>
                <g id="Group" transform="translate(7.009428, 13.000000) scale(-1, 1) translate(-7.009428, -13.000000) translate(0.009428, 0.000000)" fill="#2684FF">
                    <g id="Shape-2" transform="translate(9.294783, 12.472588) scale(-1, 1) translate(-9.294783, -12.472588) translate(4.769327, 0.000000)">
                        <path d="M4.89388607,24.4505051 L4.89388607,4.38781378 C4.89388607,4.24105341 4.83494275,4.1004527 4.73086271,3.99788111 C4.75688275,3.94619363 4.78024766,3.89343483 4.80095743,3.83933706 L6.52518143,3.83933706 C7.4260579,3.83933706 8.15647679,3.10258926 8.15647679,2.19390689 L8.15647679,0.548476723 C8.15647679,0.245582578 7.91300385,-6.03961325e-14 7.61271167,-6.03961325e-14 L3.80635583,-6.03961325e-14 C3.11523247,0.000803436127 2.49924855,0.440013325 2.26798912,1.09695345 L1.63129536,1.09695345 C0.730418885,1.09695345 1.56319402e-13,1.83370125 1.56319402e-13,2.74238361 L1.56319402e-13,24.4505051 L4.89388607,24.4505051 Z M1.08753024,2.74238361 C1.08753024,2.43948947 1.33100318,2.19390689 1.63129536,2.19390689 L2.7188256,2.19390689 C3.01911777,2.19390689 3.26259071,1.94832431 3.26259071,1.64543017 C3.26259071,1.34253602 3.50606365,1.09695345 3.80635583,1.09695345 L7.06894655,1.09695345 L7.06894655,2.19390689 C7.06894655,2.49680104 6.82547361,2.74238361 6.52518143,2.74238361 L4.35012095,2.74238361 C4.04982877,2.74238361 3.80635583,2.98796619 3.80635583,3.29086034 C3.80635583,3.59375448 3.56288289,3.83933706 3.26259071,3.83933706 L1.08753024,3.83933706 L1.08753024,2.74238361 Z M1.08753024,4.9761732 L3.80635583,4.9761732 L3.80635583,23.5062618 L1.08753024,23.5062618 L1.08753024,4.9761732 Z" id="Shape"></path>
                    </g>
                    <g id="Shape-2" transform="translate(5.503602, 15.588543) scale(-1, 1) translate(-5.503602, -15.588543) translate(0.978147, 6.109377)">
                        <path d="M4.89388607,18.3411285 L4.89388607,4.38781378 C4.89388607,4.24105341 4.83494275,4.1004527 4.73086271,3.99788111 C4.75688275,3.94619363 4.78024766,3.89343483 4.80095743,3.83933706 L6.52518143,3.83933706 C7.4260579,3.83933706 8.15647679,3.10258926 8.15647679,2.19390689 L8.15647679,0.548476723 C8.15647679,0.245582578 7.91300385,-6.03961325e-14 7.61271167,-6.03961325e-14 L3.80635583,-6.03961325e-14 C3.11523247,0.000803436127 2.49924855,0.440013325 2.26798912,1.09695345 L1.63129536,1.09695345 C0.730418885,1.09695345 1.56319402e-13,1.83370125 1.56319402e-13,2.74238361 L1.56319402e-13,18.3411285 L4.89388607,18.3411285 Z M1.08753024,2.74238361 C1.08753024,2.43948947 1.33100318,2.19390689 1.63129536,2.19390689 L2.7188256,2.19390689 C3.01911777,2.19390689 3.26259071,1.94832431 3.26259071,1.64543017 C3.26259071,1.34253602 3.50606365,1.09695345 3.80635583,1.09695345 L7.06894655,1.09695345 L7.06894655,2.19390689 C7.06894655,2.49680104 6.82547361,2.74238361 6.52518143,2.74238361 L4.35012095,2.74238361 C4.04982877,2.74238361 3.80635583,2.98796619 3.80635583,3.29086034 C3.80635583,3.59375448 3.56288289,3.83933706 3.26259071,3.83933706 L1.08753024,3.83933706 L1.08753024,2.74238361 Z M1.08753024,4.92843055 L3.80635583,4.92843055 L3.80635583,17.1883018 L1.08753024,17.1883018 L1.08753024,4.92843055 Z" id="Shape"></path>
                    </g>
                </g>
            </g>
        </g>
    </g>
</svg>