<?xml version="1.0" encoding="UTF-8"?>
<svg width="40px" height="40px" viewBox="0 0 40 40" version="1.1" xmlns="http://www.w3.org/2000/svg" xmlns:xlink="http://www.w3.org/1999/xlink">
    <!-- Generator: Sketch 55 (78076) - https://sketchapp.com -->
    <title>Directors &amp; Officers Liability</title>
    <desc>Created with Sketch.</desc>
    <g id="Page-1" stroke="none" stroke-width="1" fill="none" fill-rule="evenodd">
        <g id="Artboard-Copy-7" fill-rule="nonzero">
            <g id="Directors-&amp;-Officers-Liability" transform="translate(0.000000, 3.000000)">
                <path d="M35.0602396,27.7243927 C35.3331563,27.3327781 35.4720017,26.6683319 35.4767759,25.7310541 C35.4767759,24.0290065 34.429916,22.4251002 32.4292128,22.4251002 C30.4285097,22.4251002 29.3896296,23.8726977 29.3896296,25.7310541 C29.4210652,26.6683319 29.5732413,27.3327781 29.846158,27.7243927 C28.4284236,27.7666583 26.7895174,28.491502 26.0277205,29.5815802 C25.2659236,28.491502 23.6039821,27.7667364 22.1861696,27.7243927 C22.4590863,27.3327781 22.6200347,26.6683319 22.669015,25.7310541 C22.669015,23.9699405 21.617416,22.4251002 19.6167128,22.4251002 C17.6160097,22.4251002 16.6322197,24.0510962 16.6322197,25.7310541 C16.6402695,26.6683319 16.7807527,27.3327781 17.0536694,27.7243927 C15.635935,27.7666583 13.9770174,28.491502 13.2152205,29.5815802 C12.4534236,28.491502 10.7480565,27.7667364 9.33024398,27.7243927 C9.64631378,27.3545005 9.82188869,26.6900543 9.8569687,25.7310541 C9.8569687,23.9377663 8.80491596,22.4251002 6.80421283,22.4251002 C4.80350971,22.4251002 3.76567143,23.9639378 3.76567143,25.7310541 C3.76567143,26.5713944 3.91359866,27.2358406 4.20945312,27.7243927 C1.87664062,27.794002 -2.75365707e-13,29.3048483 -2.75365707e-13,31.6543014 L-8.31335001e-13,34.0101836 C-8.31335001e-13,34.4415899 0.34984375,34.7914336 0.78125,34.7914336 L13.2152205,34.7914336 L26.0277205,34.7914336 L38.341611,34.7914336 C38.7730172,34.7914336 39.122861,34.4415899 39.122861,34.0101836 L39.122861,31.6543014 C39.122861,29.3048483 37.3930521,27.794002 35.0602396,27.7243927 Z M4.743033,25.4168795 C4.743033,24.2777389 5.66982987,23.350942 6.8089705,23.350942 C7.94811112,23.350942 8.874908,24.2777389 8.874908,25.4168795 L8.874908,26.1286764 C8.874908,27.267817 7.94811112,28.1946139 6.8089705,28.1946139 C5.66982987,28.1946139 4.743033,27.267817 4.743033,26.1286764 L4.743033,25.4168795 Z M12.6227581,33.788442 L1.1839705,33.788442 L1.1839705,31.6543014 C1.1839705,30.1226608 2.43006425,28.8764889 3.961783,28.8764889 L6.13369833,28.8764889 L6.13369833,31.9982858 C6.13369833,32.429692 6.27171105,32.7637722 6.7031173,32.7637722 C7.13452355,32.7637722 7.26066911,32.429692 7.26066911,31.9982858 L7.26066911,28.8764889 L9.656158,28.8764889 C11.1877986,28.8764889 12.6227581,30.1225827 12.6227581,31.6543014 L12.6227581,33.788442 Z M17.555533,25.4168795 C17.555533,24.2777389 18.4823299,23.350942 19.6214705,23.350942 C20.7606111,23.350942 21.687408,24.2777389 21.687408,25.4168795 L21.687408,26.1286764 C21.687408,27.267817 20.7606111,28.1946139 19.6214705,28.1946139 C18.4823299,28.1946139 17.555533,27.267817 17.555533,26.1286764 L17.555533,25.4168795 Z M13.7726245,33.788442 L13.7726245,31.6543014 C13.7726245,30.1226608 15.2425642,28.8764889 16.774283,28.8764889 L19.0554309,28.8764889 L19.0554309,31.9982858 C19.0554309,32.429692 19.1999861,32.7795358 19.6313924,32.7795358 C20.0627986,32.7795358 20.1884899,32.429692 20.1884899,31.9982858 L20.1884899,28.8764889 L22.468658,28.8764889 C24.0002986,28.8764889 25.4648134,30.1225827 25.4648134,31.6543014 L25.4648134,33.788442 L13.7726245,33.788442 Z M30.368033,25.4168795 C30.368033,24.2777389 31.2948299,23.350942 32.4339705,23.350942 C33.5731111,23.350942 34.499908,24.2777389 34.499908,25.4168795 L34.499908,26.1286764 C34.499908,27.267817 33.5731111,28.1946139 32.4339705,28.1946139 C31.2948299,28.1946139 30.368033,27.267817 30.368033,26.1286764 L30.368033,25.4168795 Z M26.5474502,33.788442 L26.5474502,31.6543014 C26.5474502,30.1226608 28.0550642,28.8764889 29.586783,28.8764889 L31.8396207,28.8764889 L31.8396207,31.9982858 C31.8396207,32.429692 31.9784588,32.7858508 32.409865,32.7858508 C32.8412713,32.7858508 32.8982469,32.429692 32.8982469,31.9982858 L32.8982469,28.8764889 L35.281158,28.8764889 C36.8127986,28.8764889 38.0589705,30.1225827 38.0589705,31.6543014 L38.0589705,33.788442 L26.5474502,33.788442 Z" id="Shape" fill="#2684FF"></path>
                <path d="M22.820738,9.2132253 L22.4991755,9.2132253 C23.2309724,8.39119405 23.6033767,7.3091628 23.6033767,6.12455342 L23.6033767,4.38021829 L23.6033767,4.20912454 C23.6033767,1.64451516 22.1281621,-3.55271368e-14 19.5635527,-3.55271368e-14 C16.9989433,-3.55271368e-14 15.6264631,1.64451516 15.6264631,4.20912454 L15.6264631,6.12463155 C15.6264631,7.3091628 15.9120816,8.39111592 16.6438785,9.2132253 L16.322316,9.2132253 C13.1345035,9.2132253 10.5993886,11.2593014 10.5993886,14.4471139 L10.5993886,16.3201861 C10.5993886,16.7516705 10.9492323,17.1014361 11.3806386,17.1014361 L19.0197211,17.1014361 L19.0197211,18.444692 L7.15920218,18.444692 C6.72779593,18.444692 6.37795218,18.7945358 6.37795218,19.225942 L6.37795218,20.597534 C6.37795218,21.0290183 6.59561896,21.378784 7.02702521,21.378784 C7.45843146,21.378784 7.5902205,21.0289402 7.5902205,20.597534 L7.5902205,19.5769871 L19.0197211,19.5769871 L19.0197211,20.597534 C19.0197211,21.0289402 19.1900642,21.378784 19.6214705,21.378784 C20.0528767,21.378784 20.1829318,21.0289402 20.1829318,20.597534 L20.1829318,19.5769871 L29.064908,19.5769871 C29.4963142,19.5769871 29.846158,19.6573483 29.846158,19.225942 C29.846158,18.7945358 29.4963142,18.444692 29.064908,18.444692 L20.1829318,18.444692 L20.1829318,17.1014361 L27.8790606,17.1015142 C28.3104669,17.1015142 28.6603106,16.7517486 28.6603106,16.3202642 L28.6603106,14.4471139 C28.6603106,11.2593014 26.0085505,9.2132253 22.820738,9.2132253 Z M17.6603993,5.55911118 C18.9279774,5.55911118 20.1328993,5.08598618 21.0546962,4.24270493 L22.7265712,5.22497056 L22.7265712,6.42153306 C22.7265712,8.12457993 21.2665996,9.5716964 19.5635527,9.5716964 C17.8605058,9.5716964 16.5495399,8.12450181 16.5495399,6.42153306 L16.5495399,5.55911118 L17.6603993,5.55911118 Z M27.6352205,16.007192 L11.6077205,16.007192 L11.6077205,14.4470358 C11.6077205,12.1207858 13.5002986,10.2282858 15.8264705,10.2282858 L18.8402205,10.2282858 L19.2039472,11.3603199 L18.5199965,14.4470358 L19.6214705,15.28563 L20.6824188,14.4470358 L20.0373171,11.3603199 L20.4027205,10.2282858 L23.4164705,10.2282858 C25.7426424,10.2282858 27.6352205,12.1207858 27.6352205,14.4470358 L27.6352205,16.007192 Z" id="Shape" fill="#2684FF"></path>
                <path d="M19.6214705,0.913442029 C22.0134671,0.913442029 22.4157402,2.58005454 22.6355058,4.06911704 L21.2569121,3.25919517 C20.9279277,3.06591392 20.5074589,3.13857017 20.2623808,3.43099204 C19.6012871,4.21997642 18.6318339,4.67239829 17.6024589,4.67239829 L16.4915996,4.67239829 L16.4915996,4.52216392 C16.4915996,2.81911704 16.9677893,0.913442029 19.6214705,0.913442029 Z" id="Path" fill="#DEEBFF"></path>
                <path d="M32.0308871,18.444692 L28.4164705,18.444692 L28.4164705,19.5803404 L31.6725642,19.5803404 L31.6725642,20.6008872 C31.6725642,21.0322935 31.7801961,21.378784 32.2116024,21.378784 C32.6430086,21.378784 32.8121371,21.0322935 32.8121371,20.6008872 L32.8121371,19.225942 C32.8121371,18.7945358 32.4622933,18.444692 32.0308871,18.444692 Z" id="Path" fill="#2684FF"></path>
            </g>
        </g>
    </g>
</svg>