<?xml version="1.0" encoding="UTF-8"?>
<svg width="40px" height="40px" viewBox="0 0 40 40" version="1.1" xmlns="http://www.w3.org/2000/svg" xmlns:xlink="http://www.w3.org/1999/xlink">
    <!-- Generator: Sketch 55 (78076) - https://sketchapp.com -->
    <title>Erection All Risk</title>
    <desc>Created with Sketch.</desc>
    <g id="Page-1" stroke="none" stroke-width="1" fill="none" fill-rule="evenodd">
        <g id="Artboard-Copy-4" fill-rule="nonzero">
            <g id="Group" transform="translate(0.000000, 1.000000)">
                <path d="M34.6527385,2.98214286 L34.6527385,1.01622474 C34.6527385,0.651347834 34.3548565,0.355510452 33.9874578,0.355510452 L27.3346512,0.355510452 C26.9672525,0.355510452 26.6693705,0.651347834 26.6693705,1.01622474 L26.6693705,2.98214286 L0.723424571,2.98214286 C0.356025902,2.98214286 0.058143906,3.27798024 0.058143906,3.64285714 C0.058143906,4.00805664 0.356025902,4.30357143 0.723424571,4.30357143 L2.71926657,4.30357143 L2.71926657,16.8571429 C2.71926657,17.2223424 3.01714856,17.5178571 3.38454723,17.5178571 C3.7519459,17.5178571 4.0498279,17.8136945 4.0498279,18.1785714 C4.0498279,18.5437709 3.7519459,18.8392857 3.38454723,18.8392857 C3.01714856,18.8392857 2.71926657,18.5437709 2.71926657,18.1785714 L1.38870524,18.1785714 C1.39065434,18.6621704 1.57159247,19.1283482 1.89773592,19.4877406 L0.191329935,21.7466867 L0.199775923,21.753139 C0.110768605,21.8641183 0.0610674985,22.0012294 0.058143906,22.1428571 L0.058143906,24.7857143 C0.058143906,24.9612165 0.128310226,25.128976 0.253050351,25.2528599 L1.58361168,26.5742885 C1.70835181,26.6981724 1.87759555,26.7678571 2.0539859,26.7678571 L4.71510856,26.7678571 C4.89149892,26.7678571 5.06074266,26.6981724 5.18548278,26.5742885 L6.51604411,25.2528599 C6.64078424,25.128976 6.71095056,24.9612165 6.71095056,24.7857143 L6.71095056,22.1428571 C6.70802698,22.0012294 6.65832586,21.8641183 6.56931854,21.753139 L6.57776453,21.7466867 L4.87135854,19.4877406 C5.31574524,18.9973667 5.48336478,18.318586 5.31801917,17.6798096 C5.15299838,17.041033 4.67677692,16.5267857 4.0498279,16.3096662 L4.0498279,4.30357143 L26.6693705,4.30357143 L26.6693705,5.96428571 C26.6693705,6.32948521 26.9672525,6.625 27.3346512,6.625 L29.9985458,6.625 L29.9985458,36.6785714 L26.0040899,36.6785714 L26.0040899,10.25 L24.6735285,10.25 L24.6735285,12.8928571 L20.6818445,12.8928571 L20.6818445,11.5714286 L19.3512832,11.5714286 L19.3512832,12.8928571 L15.3595992,12.8928571 L15.3595992,12.2321429 L14.0290379,12.2321429 L14.0290379,12.8928571 L10.0373539,12.8928571 L10.0373539,10.9107143 L18.6860025,10.9107143 L18.6860025,9.58928571 L10.0373539,9.58928571 L10.0373539,6.94642857 L8.70679255,6.94642857 L8.70679255,36.6785714 L0.058143906,36.6785714 L0.058143906,38 L39.9753119,38 L39.9749838,36.6785714 L31.3235632,36.6785714 L31.3235632,6.625 L33.9874578,6.625 C34.3548565,6.625 34.6527385,6.32948521 34.6527385,5.96428571 L34.6527385,4.30357143 L39.3097032,4.30357143 C39.6771018,4.30357143 39.9749838,4.00805664 39.9749838,3.64285714 C39.9749838,3.27798024 39.6771018,2.98214286 39.3097032,2.98214286 L34.6527385,2.98214286 Z M24.6735285,14.2142857 L24.6735285,20.8214286 L20.6818445,20.8214286 L20.6818445,14.2142857 L24.6735285,14.2142857 Z M19.3512832,14.2142857 L19.3512832,19.8964931 L17.8212676,18.3947231 C17.6971772,18.2730974 17.5298825,18.2043806 17.3554412,18.2037354 L15.3595992,18.2037354 L15.3595992,14.2142857 L19.3512832,14.2142857 Z M14.0290379,14.2142857 L14.0290379,15.3156913 L10.0373539,15.3156913 L10.0373539,14.2142857 L14.0290379,14.2142857 Z M10.0373539,36.6785714 L10.0373539,16.6371199 L14.0290379,16.6371199 L14.0290379,18.8670306 C14.0290379,19.23223 14.3269199,19.5277449 14.6943185,19.5277449 L17.0819225,19.5277449 L19.5507375,21.952192 C19.6748279,22.0738176 19.8421226,22.1425345 20.0165639,22.1428571 L24.6735285,22.1428571 L24.6735285,36.6785714 L10.0373539,36.6785714 Z" id="Shape" fill="#2684FF" transform="translate(20.016728, 19.177755) scale(-1, 1) translate(-20.016728, -19.177755) "></path>
                <polygon id="Path" fill="#DEEBFF" transform="translate(36.648909, 20.821429) scale(-1, 1) translate(-36.648909, -20.821429) " points="36.9815489 20.1607143 37.9794699 21.4821429 35.3183472 21.4821429 36.3162682 20.1607143"></polygon>
                <polygon id="Path" fill="#DEEBFF" transform="translate(36.648909, 24.125000) scale(-1, 1) translate(-36.648909, -24.125000) " points="38.6447505 24.5124599 37.7040021 25.4464286 35.593815 25.4464286 34.6530665 24.5124599 34.6530665 22.8035714 38.6447505 22.8035714"></polygon>
                <polygon id="Path" fill="#DEEBFF" transform="translate(9.325040, 3.425302) scale(-1, 1) translate(-9.325040, -3.425302) " points="6.73221569 1.59458151 11.9178636 1.59458151 11.9178636 5.25602226 6.73221569 5.25602226"></polygon>
            </g>
        </g>
    </g>
</svg>