<?xml version="1.0" encoding="UTF-8"?>
<svg width="40px" height="40px" viewBox="0 0 40 40" version="1.1" xmlns="http://www.w3.org/2000/svg" xmlns:xlink="http://www.w3.org/1999/xlink">
    <!-- Generator: Sketch 55 (78076) - https://sketchapp.com -->
    <title>Fir &amp; Burglary</title>
    <desc>Created with Sketch.</desc>
    <g id="Page-1" stroke="none" stroke-width="1" fill="none" fill-rule="evenodd">
        <g id="Artboard-Copy-10" fill-rule="nonzero">
            <g id="Group-6" transform="translate(7.000000, 3.000000)">
                <path d="M26.3629,19.9840088 L26.3377938,19.6555324 C25.9343758,14.6494473 23.4889682,11.5112193 21.3316279,8.7431665 C19.3340039,6.18000165 17.6086957,3.96655596 17.6086957,0.700608994 C17.6086957,0.438352397 17.4546196,0.198649867 17.2102989,0.078405217 C16.9652216,-0.0424950743 16.6707575,-0.0226947012 16.4479662,0.13170887 C13.2079662,2.34174522 10.5046187,6.06664123 9.56028363,9.62074264 C8.90470363,12.0951336 8.81796705,14.8768238 8.80579229,16.7139968 C5.81368971,16.1047747 5.13589249,11.8383189 5.12873896,11.7918994 C5.09503482,11.5706204 4.95320228,11.377993 4.74685037,11.2728281 C4.53836617,11.16904 4.29328889,11.1615001 4.08191576,11.2612232 C3.92501953,11.333606 0.230701427,13.1229828 0.0157515285,20.2680982 C0.000687839674,20.5057683 0,20.7434383 0,20.981764 C0,27.9227127 5.92470703,33.5700807 13.2065217,33.5700807 C20.4883364,33.5700807 26.4130435,27.9227127 26.4130435,20.981764 C26.4130435,20.6334872 26.3880061,20.3084202 26.3629,19.9840088 Z" id="Shape" fill="#2684FF" transform="translate(13.206522, 16.785040) scale(-1, 1) translate(-13.206522, -16.785040) "></path>
                <path d="M13.3484113,32.3986326 C10.9208876,32.3986326 8.80423181,31.0162523 8.80423181,28.5514337 C8.80423181,28.467446 8.80354397,28.3827371 8.80994087,28.2789491 C8.83931163,27.239495 9.04642015,26.5298942 9.27354481,26.0579635 C9.69918001,26.9294422 10.4607561,27.7305049 11.6960474,27.7305049 C12.1015976,27.7305049 12.4297659,27.4176984 12.4297659,27.0311322 C12.4297659,26.0353439 12.4512953,24.88666 12.7113675,23.8498941 C12.9428256,22.9299635 13.4959174,21.9525987 14.1966885,21.1685826 C14.5083487,22.1862038 15.1159862,23.0098206 15.7092479,23.8137027 C16.5583172,24.963829 17.4360007,26.1528348 17.5900767,28.1805373 C17.5993626,28.3007164 17.6087172,28.4216166 17.6087172,28.5513681 C17.6085796,31.0162523 15.7759351,32.3986326 13.3484113,32.3986326 Z" id="Path" fill="#DEEBFF" transform="translate(13.206464, 26.783608) scale(-1, 1) translate(-13.206464, -26.783608) "></path>
                <path d="M17.7604155,31.6580494 C18.5219915,30.6680963 18.7896972,30.3236419 18.9824663,28.7612167 C19.0025347,28.5985584 19.0309287,28.3036971 18.9824663,28.0227845 C18.5873978,25.732769 17.737548,24.4200227 16.8183191,23.1750251 C16.0352136,22.1150495 16.1682738,22.2633596 15.4394559,21.033761 C15.3129962,20.8204091 15.0405583,20.258596 14.7912164,20.1404494 C14.543319,20.0215816 14.1285661,19.9610838 13.9165913,20.1404494 C13.0056038,20.9112952 12.2842512,21.9631214 11.8744364,23.5919971 C11.6651955,24.4272844 11.5770264,25.3454593 11.5770264,26.2287341 C11.5770264,27.1285455 10.7313919,26.1961877 10.502788,25.8364129 C10.2529576,25.5436164 9.98406291,24.9959661 9.39814219,24.9959661 C8.81222146,24.9959661 8.13854122,25.6191838 7.81398374,27.9082181 C7.80751804,28.0188904 7.8068302,28.1294971 7.8068302,28.2394482 C7.8068302,29.5820053 8.09606566,30.6680963 8.85764175,31.6580494 C4.25068838,30.0926349 1.27831054,24.9959661 1.27831054,20.5109757 C1.27831054,20.3013301 1.26331564,19.9418213 1.27831054,19.7088718 C1.40439156,15.5168313 3.33214728,13.3793484 4.25068838,12.4621715 C4.89120469,14.6476213 6.06440882,17.5683022 9.39814219,17.8275109 C9.80293218,17.8589847 10.1318608,17.5147043 10.1318608,17.1281381 C10.1318608,14.7876291 10.4801649,11.7489019 11.1365015,9.27247837 C11.8816382,6.46685729 13.7935402,3.8605257 16.5418668,1.751601 C16.9509938,4.74709586 18.9766626,7.53454278 20.7758449,9.84220414 C22.9146136,12.586326 24.842703,15.3456338 25.2131047,19.9406317 L25.2382108,20.2752711 C25.2611159,20.5662448 25.3130125,20.8585277 25.2847776,21.1685826 C24.757364,26.9602464 21.8791573,29.3150722 17.7604155,31.6580494 Z" id="Path" fill="#FFFFFF" transform="translate(13.282313, 16.704825) scale(-1, 1) translate(-13.282313, -16.704825) "></path>
            </g>
        </g>
    </g>
</svg>