<?xml version="1.0" encoding="UTF-8"?>
<svg width="39px" height="36px" viewBox="0 0 39 36" version="1.1" xmlns="http://www.w3.org/2000/svg" xmlns:xlink="http://www.w3.org/1999/xlink">
    <!-- Generator: Sketch 55 (78076) - https://sketchapp.com -->
    <title>General Liability</title>
    <desc>Created with Sketch.</desc>
    <g id="Page-1" stroke="none" stroke-width="1" fill="none" fill-rule="evenodd">
        <g id="Artboard" transform="translate(0.000000, -2.000000)">
            <g id="General-Liability" transform="translate(0.000000, 2.000000)">
                <g id="Group-2" fill="#2684FF" fill-rule="nonzero">
                    <path d="M12.8814725,10.5420513 C13.2645858,10.5420513 13.5752669,10.235732 13.5752669,9.85784466 L13.5752669,5.71579423 C13.5752669,5.33790687 13.2645858,5.03158754 12.8814725,5.03158754 C12.4983593,5.03158754 12.1876781,5.33790687 12.1876781,5.71579423 L12.1876781,9.85791308 C12.1876781,10.235732 12.4983593,10.5420513 12.8814725,10.5420513 Z" id="XMLID_606_"></path>
                    <path d="M12.1876781,19.9113724 C12.1876781,20.2892598 12.4983593,20.5955791 12.8814725,20.5955791 C13.2645858,20.5955791 13.5752669,20.2892598 13.5752669,19.9113724 L13.5752669,15.7692536 C13.5752669,15.3913662 13.2645858,15.0850469 12.8814725,15.0850469 C12.4983593,15.0850469 12.1876781,15.3913662 12.1876781,15.7692536 L12.1876781,19.9113724 Z" id="XMLID_641_"></path>
                    <path d="M4.92594026,16.9882362 C4.54282699,16.9882362 4.23214586,17.294624 4.23214586,17.6724429 L4.23214586,21.8145617 C4.23214586,22.1923807 4.54282699,22.4987684 4.92594026,22.4987684 C5.30905353,22.4987684 5.61973466,22.1923807 5.61973466,21.8145617 L5.61973466,17.6724429 C5.61973466,17.294624 5.30905353,16.9882362 4.92594026,16.9882362 Z" id="XMLID_1693_"></path>
                    <path d="M4.92594026,25.1385747 C4.54282699,25.1385747 4.23214586,25.4449624 4.23214586,25.8227813 L4.23214586,29.9649002 C4.23214586,30.3427191 4.54282699,30.6491069 4.92594026,30.6491069 C5.30905353,30.6491069 5.61973466,30.3427191 5.61973466,29.9649002 L5.61973466,25.8227813 C5.61973466,25.4449624 5.30905353,25.1385747 4.92594026,25.1385747 Z" id="XMLID_1708_"></path>
                    <path d="M12.1876781,29.9649002 C12.1876781,30.3427191 12.4983593,30.6491069 12.8814725,30.6491069 C13.2645858,30.6491069 13.5752669,30.3427191 13.5752669,29.9649002 L13.5752669,25.8227813 C13.5752669,25.4449624 13.2645858,25.1385747 12.8814725,25.1385747 C12.4983593,25.1385747 12.1876781,25.4449624 12.1876781,25.8227813 L12.1876781,29.9649002 Z" id="XMLID_1712_"></path>
                    <path d="M22.5588919,10.5420513 C22.9420052,10.5420513 23.2526863,10.235732 23.2526863,9.85784466 L23.2526863,5.71579423 C23.2526863,5.33790687 22.9420052,5.03158754 22.5588919,5.03158754 C22.1757786,5.03158754 21.8650975,5.33790687 21.8650975,5.71579423 L21.8650975,9.85791308 C21.8650975,10.235732 22.1757786,10.5420513 22.5588919,10.5420513 Z" id="XMLID_606_"></path>
                    <path d="M18.2578166,10.5420513 C18.6409299,10.5420513 18.951611,10.235732 18.951611,9.85784466 L18.951611,5.71579423 C18.951611,5.33790687 18.6409299,5.03158754 18.2578166,5.03158754 C17.8747034,5.03158754 17.5640222,5.33790687 17.5640222,5.71579423 L17.5640222,9.85791308 C17.5640222,10.235732 17.8747034,10.5420513 18.2578166,10.5420513 Z" id="XMLID_606_"></path>
                    <path d="M27.0579817,1.36841337 L27.9946042,1.36841337 C28.3777174,1.36841337 28.6883986,1.06209404 28.6883986,0.684206685 C28.6883986,0.306319333 28.3777174,-1.42108547e-14 27.9946042,-1.42108547e-14 L26.3641873,-1.42108547e-14 L9.15808612,-1.42108547e-14 L7.52766927,-1.42108547e-14 C7.144556,-1.42108547e-14 6.83387487,0.306319333 6.83387487,0.684206685 C6.83387487,1.06209404 7.144556,1.36841337 7.52766927,1.36841337 L8.46429171,1.36841337 L8.46429171,10.7876359 C8.46429171,11.1655233 8.77497285,11.4718426 9.15808612,11.4718426 C9.54119939,11.4718426 9.85188052,11.1655233 9.85188052,10.7876359 L9.85188052,1.36841337 L25.6703929,1.36841337 L25.6703929,33.6629689 L9.85188052,33.6629689 L9.85188052,10.4227257 C9.85188052,10.0448383 9.54119939,9.73851901 9.15808612,9.73851901 C8.77497285,9.73851901 8.46429171,10.0448383 8.46429171,10.4227257 L8.46429171,13.410451 L0.693794403,13.410451 C0.310681134,13.410451 2.27373675e-13,13.7167704 2.27373675e-13,14.0946577 L2.27373675e-13,34.3471756 C2.27373675e-13,34.7249945 0.310681134,35.0313823 0.693794403,35.0313823 L31.5130668,35.0313823 C31.8961801,35.0313823 32.2068612,34.7249945 32.2068612,34.3471756 C32.2068612,33.9693567 31.8961801,33.6629689 31.5130668,33.6629689 L27.0579817,33.6629689 L27.0579817,1.36841337 Z M1.38758881,14.7788644 L8.46429171,14.7788644 L8.46429171,33.6629689 L1.38758881,33.6629689 L1.38758881,14.7788644 Z" id="XMLID_1755_"></path>
                </g>
                <g id="Group" transform="translate(15.053763, 13.552941)">
                    <path d="M1.51802657,3.02521008 L22.0505935,3.02521008 C22.8889764,3.02521008 23.5686201,3.70485373 23.5686201,4.54323665 C23.5686201,4.57151584 23.5678299,4.59978951 23.5662504,4.62802455 L23.2937521,9.4991652 L22.1774194,12.8029469 L22.1774194,19.658444 C22.1774194,20.4968269 21.4977757,21.1764706 20.6593928,21.1764706 L2.99652119,21.1764706 C2.15813827,21.1764706 1.47849462,20.4968269 1.47849462,19.658444 L1.47849462,13.432389 L6.72341513e-13,9.4991652 L0,4.54323665 C-8.72248057e-14,3.70485373 0.679643644,3.02521008 1.51802657,3.02521008 Z" id="Rectangle" fill="#FFFFFF"></path>
                    <path d="M1.81968569,2.87083775 L21.7513688,2.87083775 C22.1604343,2.87083775 22.5527455,3.04032906 22.8419985,3.34202553 C23.1312515,3.643722 23.2937521,4.05291022 23.2937521,4.47957346 L23.2937521,8.92359475 C23.2937521,9.81207494 22.6032036,10.5323305 21.7513688,10.5323305 C19.8633449,10.5323305 19.191842,10.5323305 19.73686,10.5323305" id="Shape" stroke="#2684FF" stroke-width="1.15475874" stroke-linecap="round"></path>
                    <path d="M3.86357613e-13,2.87083775 L19.9316831,2.87083775 C20.3407486,2.87083775 20.7330598,3.04032906 21.0223128,3.34202553 C21.3115658,3.643722 21.4740665,4.05291022 21.4740665,4.47957346 L21.4740665,8.92359475 C21.4740665,9.81207494 20.7835179,10.5323305 19.9316831,10.5323305 C18.7647668,10.5323305 18.1447792,10.5323305 18.0717203,10.5323305" id="Shape" stroke="#2684FF" stroke-width="1.15475874" stroke-linecap="round" transform="translate(10.737033, 6.701584) scale(-1, 1) translate(-10.737033, -6.701584) "></path>
                    <path d="M14.2373655,10.5145544 L9.02767276,10.5323305" id="Shape" stroke="#2684FF" stroke-width="1.15475874" stroke-linecap="round"></path>
                    <path d="M7.60823902,2.87083775 C7.57397551,2.73750433 7.6054266,1.91564784 7.6057536,1.77760852 L7.6057536,1.5020792 C7.6057536,0.672503763 8.25051992,-3.77475828e-15 9.04587948,-3.77475828e-15 L14.5336965,-3.77475828e-15 C15.329056,-2.19592476e-15 15.9738223,0.672503763 15.9738223,1.5020792 L15.9738223,1.77760852 C15.9712746,1.91603584 15.9025746,2.73788596 15.8655289,2.87083775 L7.60823902,2.87083775 Z" id="Shape" stroke="#2684FF" stroke-width="1.15475874" fill="#FFFFFF" fill-rule="nonzero" stroke-linecap="round"></path>
                    <path d="M22.5097783,14.9588742 L22.5097783,18.7626579 C22.5050855,19.9667331 21.567923,20.9402383 20.4135004,20.9402283 L3.15755412,20.9402283 C2.59943061,20.947357 2.0618104,20.721086 1.66473353,20.3119371 C1.26765666,19.9027882 1.04419144,19.3448351 1.04423329,18.7626579 L1.04423329,14.9588742 C3.63025816,15.8445923 7.2282058,16.2874514 11.8380762,16.2874514 C16.4479466,16.2874514 20.0051807,15.8445923 22.5097783,14.9588742 Z" id="Shape" fill="#DEEBFF"></path>
                    <path d="M22.4160423,10.5145544 C22.4775791,10.7126751 22.5092022,10.9195721 22.5097783,11.1278293 L22.5097783,18.7626579 C22.5050855,19.9667331 21.567923,20.9402383 20.4135004,20.9402283 L3.15755412,20.9402283 C2.59943061,20.947357 2.0618104,20.721086 1.66473353,20.3119371 C1.26765666,19.9027882 1.04419144,19.3448351 1.04423329,18.7626579 L1.04423329,11.1278293 C1.04205321,10.9200375 1.07080006,10.7131513 1.12944784,10.5145544" id="Shape" stroke="#2684FF" stroke-width="1.15475874" stroke-linecap="round"></path>
                    <path d="M5.63756724,8.60362521 L7.41765679,8.60362521 C7.62958789,8.60362521 7.801392,8.77542932 7.801392,8.98736043 L7.801392,12.0417483 C7.801392,12.2536794 7.62958789,12.4254835 7.41765679,12.4254835 L5.63756724,12.4254835 C5.42563614,12.4254835 5.25383203,12.2536794 5.25383203,12.0417483 L5.25383203,8.98736043 C5.25383203,8.77542932 5.42563614,8.60362521 5.63756724,8.60362521 Z" id="Rectangle-path" stroke="#2684FF" stroke-width="1.15475874" fill="#DEEBFF" fill-rule="nonzero"></path>
                    <path d="M16.2492641,8.60362521 L18.0293536,8.60362521 C18.2412847,8.60362521 18.4130888,8.77542932 18.4130888,8.98736043 L18.4130888,12.0417483 C18.4130888,12.2536794 18.2412847,12.4254835 18.0293536,12.4254835 L16.2492641,12.4254835 C16.037333,12.4254835 15.8655289,12.2536794 15.8655289,12.0417483 L15.8655289,8.98736043 C15.8655289,8.77542932 16.037333,8.60362521 16.2492641,8.60362521 Z" id="Rectangle-path" stroke="#2684FF" stroke-width="1.15475874" fill="#DEEBFF" fill-rule="nonzero"></path>
                </g>
            </g>
        </g>
    </g>
</svg>