<?xml version="1.0" encoding="UTF-8"?>
<svg width="40px" height="40px" viewBox="0 0 40 40" version="1.1" xmlns="http://www.w3.org/2000/svg" xmlns:xlink="http://www.w3.org/1999/xlink">
    <!-- Generator: Sketch 55 (78076) - https://sketchapp.com -->
    <title>Group Personal Accident</title>
    <desc>Created with Sketch.</desc>
    <g id="Page-1" stroke="none" stroke-width="1" fill="none" fill-rule="evenodd">
        <g id="Artboard-Copy-8">
            <g id="Group" transform="translate(0.000000, 2.000000)">
                <g id="Group-2" transform="translate(14.229692, 0.000000)" fill-rule="nonzero">
                    <path d="M24.6723472,12.4406894 L18.9539878,6.81069995 C18.7344617,6.59459305 18.3786102,6.59459305 18.1590841,6.81069995 L14.0569539,10.8469097 L10.3005562,7.14783501 C12.7802734,6.78322814 14.6163097,4.68762096 14.6191206,2.2186879 L14.6191206,2.12402436 C14.6191206,1.20679832 13.8640604,0.463260505 12.9326205,0.463260505 C12.0011806,0.463260505 11.2461205,1.20679832 11.2461205,2.12402436 C11.2448556,3.09321846 10.4471411,3.87855217 9.46292783,3.87945175 C8.47555234,3.88138931 7.49618772,4.05313997 6.5688938,4.3870919 C7.16605535,2.64944852 6.21964775,0.764135556 4.45507684,0.176155954 C2.69050592,-0.411823648 0.775977047,0.520072468 0.17888577,2.25771585 C-0.418205508,3.99535922 0.528131815,5.88067219 2.29270273,6.46865179 C2.57125632,6.56144697 2.86091269,6.61805134 3.15429343,6.63687333 L2.98227043,6.81069995 C0.589618795,9.16711626 0.589618795,12.9872883 2.98227043,15.3437046 L3.19533159,15.5535144 C3.88265062,16.2261238 4.99356224,16.2227331 5.67659475,15.5459026 C6.00265142,15.2228148 6.18591775,14.7861032 6.18662046,14.3306387 C6.18795561,13.8721294 6.0029325,13.4321654 5.67280012,13.1088701 L5.45973895,12.8990602 C4.59280767,12.0425213 4.44537946,10.7083051 5.10501178,9.68825011 L12.9236259,17.3842298 L8.43528715,17.3842298 C8.12483061,17.3842298 7.87312048,17.6320988 7.87312048,17.9378178 C7.87312048,18.2435367 8.12483061,18.4914057 8.43528715,18.4914057 L14.0457105,18.4914057 L14.6191206,19.0560654 L14.6191206,24.0272852 C14.6198233,24.4162499 14.7247376,24.7981564 14.9232527,25.1344611 L11.2461205,25.1344611 C10.935664,25.1344611 10.6839538,25.3823301 10.6839538,25.6880491 C10.6839538,25.993768 10.935664,26.241637 11.2461205,26.241637 L16.8526087,26.241637 L16.8677872,26.241637 C18.1096837,26.241637 19.1164539,25.2502302 19.1164539,24.0272852 L19.1164539,17.1627946 C19.1164539,17.0159554 19.0571454,16.8752057 18.9517391,16.7714079 L16.5383576,14.3948549 L18.5542873,12.41301 L21.6287768,15.4378146 C22.469216,16.2654286 23.831908,16.2654286 24.6723472,15.4378146 C25.5127863,14.6102006 25.5127863,13.2683034 24.6723472,12.4406894 Z M23.8681677,14.655318 C23.6771013,14.8416695 23.4194885,14.9468513 23.150562,14.9483736 C22.878122,14.9477508 22.6169253,14.8413235 22.4236805,14.6522041 L18.9539878,11.2393344 C18.7344617,11.0232275 18.3786102,11.0232275 18.1590841,11.2393344 L15.3499372,14.0072741 C15.1304814,14.2234502 15.1304814,14.5738714 15.3499372,14.7900475 L17.9921206,17.3953016 L17.9921206,24.0272852 C17.9921206,24.6387923 17.4887706,25.1344611 16.8677872,25.1344611 C16.2468039,25.1344611 15.7434539,24.6387923 15.7434539,24.0272852 L15.7434539,18.8235585 C15.7434539,18.6767193 15.6841453,18.5359695 15.5787391,18.4321718 L5.45973895,8.46758868 C5.24021287,8.25148179 4.88436136,8.25148179 4.66483528,8.46758868 C3.20538032,9.90747094 3.20538032,12.2391834 4.66483528,13.6790656 L4.87789645,13.8888755 C5.12412545,14.1311394 5.12426599,14.5240485 4.8782478,14.76652 C4.75998199,14.8831194 4.59941313,14.9485812 4.43209827,14.9484428 C4.26499423,14.9480276 4.104847,14.8828426 3.9863001,14.766866 L3.77323893,14.5570561 C1.81949893,12.632992 1.81949893,9.51366231 3.77323893,7.58959819 L4.26738344,7.10354797 C5.64223231,5.74206761 7.513123,4.97873902 9.46292783,4.98385971 C11.0667191,4.98233734 12.3670809,3.70334158 12.3704539,2.12402436 C12.3704539,1.81830541 12.622164,1.57043641 12.9326205,1.57043641 C13.2430771,1.57043641 13.4947872,1.81830541 13.4947872,2.12402436 L13.4947872,2.2186879 C13.4923277,4.35782094 11.7319028,6.0913816 9.5596205,6.09380355 C9.24916395,6.09380355 8.99745382,6.34167255 8.99745382,6.6473915 L8.99745382,7.20097945 C8.99745382,7.34781865 9.05676241,7.48856839 9.16216866,7.59236613 L13.659502,12.0210697 C13.8790281,12.2371766 14.2348796,12.2371766 14.4544057,12.0210697 L18.5542873,7.9843064 L23.8751948,13.2234628 C24.2747548,13.6208005 24.2716629,14.2618554 23.8681677,14.655318 Z" id="Shape" fill="#2684FF"></path>
                    <path d="M1.12712041,3.3258638 C1.12712041,2.10291882 2.13389065,1.111512 3.3757871,1.111512 C4.61768355,1.111512 5.62445379,2.10291882 5.62445379,3.3258638 C5.62445379,4.54880878 4.61768355,5.5402156 3.3757871,5.5402156 C2.13389065,5.5402156 1.12712041,4.54880878 1.12712041,3.3258638 Z" id="Path" fill="#DEEBFF"></path>
                    <path d="M8.99745382,25.1344611 L7.87312048,25.1344611 C7.56266393,25.1344611 7.31095381,25.3823301 7.31095381,25.6880491 C7.31095381,25.993768 7.56266393,26.241637 7.87312048,26.241637 L8.99745382,26.241637 C9.30791037,26.241637 9.5596205,25.993768 9.5596205,25.6880491 C9.5596205,25.3823301 9.30791037,25.1344611 8.99745382,25.1344611 Z" id="Path" fill="#2684FF"></path>
                    <path d="M6.18662046,17.3842298 L5.06228711,17.3842298 C4.75183057,17.3842298 4.50012044,17.6320988 4.50012044,17.9378178 C4.50012044,18.2435367 4.75183057,18.4914057 5.06228711,18.4914057 L6.18662046,18.4914057 C6.49707701,18.4914057 6.74878713,18.2435367 6.74878713,17.9378178 C6.74878713,17.6320988 6.49707701,17.3842298 6.18662046,17.3842298 Z" id="Path" fill="#2684FF"></path>
                </g>
                <polyline id="Path-15" stroke="#2684FF" stroke-width="1.2" stroke-linecap="round" stroke-linejoin="round" points="0.434431705 16.6438482 7.85704884 16.6438482 7.85704884 23.2718724 15.3701401 23.2718724 15.3701401 29.412206 22.3164853 29.412206 22.3164853 36 33.8435464 36"></polyline>
            </g>
        </g>
    </g>
</svg>