<?xml version="1.0" encoding="UTF-8"?>
<svg width="40px" height="40px" viewBox="0 0 40 40" version="1.1" xmlns="http://www.w3.org/2000/svg" xmlns:xlink="http://www.w3.org/1999/xlink">
    <!-- Generator: Sketch 55 (78076) - https://sketchapp.com -->
    <title>Group Mediclaim</title>
    <desc>Created with Sketch.</desc>
    <g id="Page-1" stroke="none" stroke-width="1" fill="none" fill-rule="evenodd">
        <g id="Artboard-Copy">
            <g id="Group-Mediclaim" transform="translate(0.000000, 1.000000)">
                <g id="heart" fill-rule="nonzero" stroke="#2684FF" stroke-width="1.3">
                    <path d="M29.3581274,1.03154652 C25.4990829,1.0704132 22.0388225,3.5582283 20.5801167,7.34281659 C20.4563278,7.65401085 20.168609,7.85634364 19.8498608,7.85634364 C19.5311127,7.85634364 19.2433117,7.65401085 19.119605,7.34281659 C17.7572706,3.58813912 14.3756506,1.08902051 10.5785827,1.03067702 C5.54182005,1.03067702 1.51252485,5.49304102 0.996765215,11.6410189 C0.99438466,11.6693646 0.990526518,11.6976234 0.985108703,11.7255343 C0.866491374,13.0521314 0.978295389,14.3904667 1.31502084,15.6743713 C2.1317976,19.2432365 3.95637017,22.4636058 6.54542936,24.9058591 L19.8545399,37.6998647 L33.3959597,24.902555 C35.9828025,22.4608234 37.8057333,19.2421061 38.6216892,15.6751538 C38.9594818,14.3897711 39.0707933,13.0495229 38.9500417,11.7214477" id="Shape"></path>
                </g>
                <g id="Group" transform="translate(10.835726, 10.106042)">
                    <path d="M6.65447604,9.97573403 C6.37498304,10.4309968 6.17982263,10.9259659 6.07701269,11.4403063 C5.98234656,11.9232664 6.15653223,12.3547921 6.25309168,12.7985227 C6.54561,14.1393037 6.86747482,15.4757258 7.18933964,16.8086609 C7.23572604,17.0004501 7.18933964,17.0571151 6.98012751,17.0553716 C6.06375943,17.050141 3.03470165,17.0553716 2.12117355,17.0553716 C1.92426802,17.0553716 1.82581525,16.9568617 1.76901557,16.7981997 C1.1896589,15.2011185 0.609671112,13.602875 0.0290522195,12.0034692 C-0.0391073896,11.8169106 0.0290522195,11.645172 0.066918669,11.4725617 C0.290348199,10.5914359 1.14334464,9.96808055 2.12590686,9.96788811 L6.65447604,9.97573403 Z" id="Path" stroke="#2684FF" stroke-width="1.125" fill="#FEFEFE" stroke-linecap="round" stroke-linejoin="round"></path>
                    <path d="M12.2135773,9.98031635 C13.1791718,10.0247766 16.2631359,9.88616528 17.2183171,10.0518014 C18.0750455,10.2000022 18.7859881,11.0238241 18.8276412,11.8214929 C18.8259783,11.9112796 18.8060708,11.9999855 18.7689482,12.0830236 C18.2009514,13.6312857 17.6329547,15.178676 17.0829445,16.7312969 C16.997745,16.9710334 16.8737324,17.0695434 16.5973073,17.0660563 C15.7257479,17.0538515 12.7402365,17.0538515 11.8680459,17.0660563 C11.6001408,17.0660563 11.6010875,16.98411 11.6503139,16.780116 C12.0204584,15.2205209 12.3868163,13.6600541 12.7323477,12.0952284 C12.8724535,11.4597087 12.6376815,10.8747515 12.3536832,10.3046145 C12.3035101,10.2095916 12.1965374,10.132876 12.2135773,9.98031635 Z" id="Path" stroke="#2684FF" stroke-width="1.125" fill="#FEFEFE" stroke-linecap="round" stroke-linejoin="round"></path>
                    <path d="M9.52426356,18.1788243 C8.60694882,18.1788243 7.69058074,18.1788243 6.77894597,18.1788243 C6.4949476,18.1788243 6.32549523,18.1204158 6.25449564,17.7978612 C5.82849808,15.8695078 5.3477011,13.4607019 4.90182366,11.5367073 C4.66137171,10.4984302 5.62223286,9.20123762 6.83869255,8.9048361 C7.01695954,8.85932347 7.20088369,8.83529469 7.38586275,8.83335102 C8.82668115,8.83335102 10.2665529,8.81504387 11.7064246,8.84206871 C13.1008566,8.86909356 14.3087964,10.1122364 14.1734238,11.3832759 C14.1175708,11.9167986 13.9509584,12.4416037 13.8278925,12.969024 C13.4899344,14.4240068 13.1509228,16.3646727 12.8328446,17.8231425 C12.7684716,18.1169287 12.6084859,18.1788243 12.3434207,18.1788243 L9.52426356,18.1788243 Z" id="Path" stroke="#2684FF" stroke-width="1.125" fill="#FFFFFF" stroke-linecap="round" stroke-linejoin="round"></path>
                    <path d="M9.50460848,17.7378549 C8.68011359,17.7378549 7.74065241,17.7378549 6.92126275,17.7378549 C6.658956,17.7378549 6.658956,17.6293674 6.59514061,17.3394509 C6.21224824,15.6062208 5.9746083,13.4751967 5.57384762,11.7458843 C6.84703236,12.3224102 8.15728598,12.6106732 9.50460848,12.6106732 C10.851931,12.6106732 12.184334,12.3224102 13.5018176,11.7458843 C13.4516162,12.2254218 12.7737805,16.0853249 12.4878875,17.3962173 C12.4300282,17.6602763 12.4484216,17.7525954 12.0827314,17.7378549 L9.50460848,17.7378549 Z" id="Path" fill="#DEEBFF"></path>
                    <path d="M3.79124179,8.28006261 C2.04100408,8.28006261 0.664285835,7.07594837 0.536770129,5.40575979 C0.423924371,3.94567795 1.46210534,2.5933158 3.12093798,2.27868896 C3.90598704,2.11864266 4.72615476,2.26352873 5.39703692,2.6807714 C5.50988268,2.75222902 5.63288456,2.80128948 5.60467312,2.98686598 C5.42524836,4.16005081 6.37464035,4.44588129 7.06299947,5.40575979 C7.21985507,5.62759837 6.60335807,6.56081358 6.46342933,6.77411991 C5.83036463,7.737198 4.91180016,8.2224699 3.79124179,8.28006261 Z" id="Path" stroke="#2684FF" stroke-width="1.125" fill="#FEFEFE" stroke-linecap="round" stroke-linejoin="round"></path>
                    <path d="M18.0539105,5.06892583 C18.1722047,6.61909258 16.9758709,7.99737445 15.3164041,8.22477494 C14.0365572,8.39353226 12.7804855,7.78974799 12.158172,6.70663643 C12.050225,6.55690805 10.982275,5.66355467 11.1066507,5.52598451 C11.7929803,4.55125844 13.2272838,4.1796084 13.0386826,2.99242836 C13.0107831,2.81413783 13.1101056,2.75008135 13.2283998,2.67214597 C13.7274772,2.36871763 14.3077141,2.21001596 14.8990264,2.21520977 C16.5841608,2.21520977 17.9300364,3.42694479 18.0539105,5.06892583 Z" id="Path" stroke="#2684FF" stroke-width="1.125" fill="#FEFEFE" stroke-linecap="round" stroke-linejoin="round"></path>
                    <path d="M9.20863091,1.68777234e-05 C11.3361561,-0.00614236067 13.1134714,1.67430318 13.112377,3.69042721 C13.112377,5.67062236 11.314268,7.35209444 9.20753651,7.3459352 C7.07016164,7.33874942 5.29175194,5.69012661 5.28409109,3.70890493 C5.28343333,1.67108727 7.03614594,0.0146854614 9.20863091,1.68777234e-05 L9.20863091,1.68777234e-05 Z" id="Path" stroke="#2684FF" stroke-width="1.125" fill="#FEFEFE" stroke-linecap="round" stroke-linejoin="round"></path>
                </g>
                <path d="M30.91442,6.21920731 L39,6.21920731" id="Path-16" stroke="#2684FF" stroke-width="1.4" stroke-linecap="round" stroke-linejoin="round"></path>
                <path d="M30.8080308,6.21920731 L39.1063892,6.21920731" id="Path-16" stroke="#2684FF" stroke-width="1.4" stroke-linecap="round" stroke-linejoin="round" transform="translate(34.957210, 6.219207) rotate(90.000000) translate(-34.957210, -6.219207) "></path>
            </g>
        </g>
    </g>
</svg>