<?xml version="1.0" encoding="UTF-8"?>
<svg width="40px" height="40px" viewBox="0 0 40 40" version="1.1" xmlns="http://www.w3.org/2000/svg" xmlns:xlink="http://www.w3.org/1999/xlink">
    <!-- Generator: Sketch 55 (78076) - https://sketchapp.com -->
    <title>Group Term Life</title>
    <desc>Created with Sketch.</desc>
    <g id="Page-1" stroke="none" stroke-width="1" fill="none" fill-rule="evenodd">
        <g id="Artboard-Copy-9">
            <g id="Group-3" transform="translate(2.000000, 0.600000)">
                <g id="Group-2" transform="translate(5.341136, 15.969707)">
                    <path d="M9.11064428,12.9620613 C8.72799036,13.5536112 8.46079622,14.1967538 8.3200391,14.8650666 C8.1904317,15.4926053 8.42890932,16.0533122 8.56110888,16.6298775 C8.96159576,18.3720336 9.40226094,20.108526 9.84292612,21.8404874 C9.90643375,22.0896905 9.84292612,22.1633186 9.55649376,22.1610532 C8.30189407,22.1542567 4.15481054,22.1610532 2.90409907,22.1610532 C2.63451567,22.1610532 2.49972397,22.0330534 2.42195952,21.8268945 C1.6287622,19.7517125 0.834700823,17.6750202 0.0397753986,15.5968175 C-0.0535419338,15.3544109 0.0397753986,15.1312608 0.0916183611,14.9069781 C0.397515768,13.7620791 1.56535334,12.9521167 2.91057944,12.9518666 L9.11064428,12.9620613 Z" id="Path" stroke="#2684FF" stroke-width="1.23672338" fill="#FEFEFE" stroke-linecap="round" stroke-linejoin="round"></path>
                    <path d="M16.7216107,12.9680154 C18.0436063,13.0257852 22.2658621,12.8456793 23.5736008,13.0609002 C24.7465479,13.2534662 25.7198995,14.3239067 25.7769267,15.360365 C25.7746501,15.4770302 25.7473948,15.592291 25.6965701,15.7001873 C24.9189257,17.7119358 24.1412813,19.7225516 23.3882622,21.7399638 C23.2716156,22.0514676 23.1018299,22.1794674 22.7233763,22.1749364 C21.5301241,22.159078 17.44266,22.159078 16.2485437,22.1749364 C15.8817548,22.1749364 15.8830508,22.0684587 15.9504467,21.8033973 C16.4572116,19.7769232 16.9587923,17.7493163 17.4318593,15.7160457 C17.6236783,14.8902773 17.3022519,14.1302079 16.9134297,13.3893951 C16.8447378,13.2659263 16.6982814,13.1662451 16.7216107,12.9680154 Z" id="Path" stroke="#2684FF" stroke-width="1.23672338" fill="#FEFEFE" stroke-linecap="round" stroke-linejoin="round"></path>
                    <path d="M13.0396709,22.5688822 C11.7837751,22.5688822 10.5291754,22.5688822 9.28105607,22.5688822 C8.89223386,22.5688822 8.6602366,22.4929886 8.56303104,22.0738743 C7.97979772,19.5682506 7.32153849,17.4902861 6.71108761,14.9903262 C6.38188479,13.6412313 7.69739997,11.9557123 9.36285514,11.5705803 C9.6069205,11.511443 9.85873109,11.480221 10.1119859,11.4776955 C12.0846107,11.4776955 14.0559393,11.4539079 16.027268,11.4890229 C17.9363851,11.5241379 19.5901756,13.1394269 19.404837,14.7909637 C19.3283686,15.4842014 19.1002596,16.1661116 18.9317699,16.8514201 C18.4690715,18.7419653 18.0049306,20.2116477 17.5694497,22.1067238 C17.4813167,22.4884576 17.2622801,22.5688822 16.8993794,22.5688822 L13.0396709,22.5688822 Z" id="Path" stroke="#2684FF" stroke-width="1.23672338" fill="#FFFFFF" stroke-linecap="round" stroke-linejoin="round"></path>
                    <path d="M13.0127611,21.9959046 C11.883945,21.9959046 10.5977285,21.9959046 9.475902,21.9959046 C9.1167778,21.9959046 9.1167778,21.8549403 9.02940813,21.4782347 C8.50519013,19.2261463 7.9537878,17.5091201 7.40510629,15.2621223 C9.29892336,16.0112365 11.1681416,16.3857937 13.0127611,16.3857937 C14.8573805,16.3857937 16.7481907,16.0112365 18.6851916,15.2621223 C18.6164608,15.8852137 17.488585,19.8486746 17.0971689,21.5519947 C17.0179537,21.8951022 17.0431362,22.0150578 16.5424696,21.9959046 L13.0127611,21.9959046 Z" id="Path" fill="#DEEBFF"></path>
                    <path d="M5.19058977,10.7587751 C2.79433903,10.7587751 0.90947385,9.19419827 0.734892075,7.02402345 C0.580394928,5.12685275 2.00176867,3.36964862 4.27287673,2.96083536 C5.34768752,2.75287773 6.47057929,2.94113678 7.38908417,3.48328485 C7.54358131,3.57613396 7.7119832,3.63988112 7.67335892,3.88101165 C7.42770845,5.40540009 8.72752118,5.77679655 9.66995377,7.02402345 C9.88470481,7.31227145 9.04065866,8.52485316 8.8490822,8.8020147 C7.98235321,10.053399 6.72474644,10.6839415 5.19058977,10.7587751 Z" id="Path" stroke="#2684FF" stroke-width="1.23672338" fill="#FEFEFE" stroke-linecap="round" stroke-linejoin="round"></path>
                    <path d="M24.7176119,6.58635517 C24.8795685,8.60057852 23.2416677,10.3914617 20.9696914,10.6869366 C19.2174528,10.906213 17.4977649,10.1216803 16.6457554,8.71432943 C16.4979651,8.51977849 15.0358346,7.3589916 15.2061173,7.18023854 C16.1457713,5.91371931 18.1094765,5.43081243 17.8512626,3.88823917 C17.8130653,3.65657574 17.9490477,3.57334337 18.1110044,3.47207732 C18.7942914,3.07781493 19.5886938,2.87160446 20.3982596,2.87835308 C22.7053774,2.87835308 24.5480158,4.45283208 24.7176119,6.58635517 Z" id="Path" stroke="#2684FF" stroke-width="1.23672338" fill="#FEFEFE" stroke-linecap="round" stroke-linejoin="round"></path>
                    <path d="M12.6075381,2.19302244e-05 C15.5203333,-0.00798113255 17.953656,2.17552116 17.9521576,4.79519038 C17.9521576,7.36817506 15.4903662,9.5530112 12.6060398,9.54500813 C9.6797595,9.53567123 7.24493847,7.39351809 7.23445001,4.81919956 C7.23354947,2.17134254 9.6331886,0.0190816887 12.6075381,2.19302244e-05 L12.6075381,2.19302244e-05 Z" id="Path" stroke="#2684FF" stroke-width="1.23672338" fill="#FEFEFE" stroke-linecap="round" stroke-linejoin="round"></path>
                </g>
                <g id="Group">
                    <path d="M17.6842105,0 L17.6842105,1.48645333" id="Shape" stroke="#2684FF" stroke-width="1.21552953" stroke-linecap="round" stroke-linejoin="round"></path>
                    <path d="M24.019519,15.9162826 C24.6329732,14.7035716 26.9194841,13.769784 29.596375,13.769784 C32.775183,13.769784 36,14.9824951 36,16.5590195 C35.2784387,10.9591819 32.220072,6.42715161 27.0612353,3.69072521 C21.9023985,0.954298812 15.4774176,0.752650838 10.1052632,3.15856216" id="Shape" stroke="#2684FF" stroke-width="1.21552953" stroke-linecap="round" stroke-linejoin="round"></path>
                    <path d="M0,15.8963267 C0.614509246,14.645963 2.9049528,13.683183 5.58644769,13.683183 C8.77072288,13.683183 11.3684211,15.0773111 11.3684211,16.7027839 C10.978203,13.0208402 9.32674363,9.90195225 7.30577728,7.4708868 C5.67805455,5.51286285 3.6805627,4.14398382 1.26315789,3.15856216" id="Shape" stroke="#2684FF" stroke-width="1.21552953" stroke-linecap="round" stroke-linejoin="round" transform="translate(5.684211, 9.930673) scale(-1, 1) translate(-5.684211, -9.930673) "></path>
                    <path d="M17.6842105,1.48645333 C14.4037063,1.48645333 11.7057216,7.64038259 11.3684735,15.5219518 C11.3657981,15.6632174 11.4657439,15.7921955 11.6225482,15.8498304 C11.7793526,15.9074653 11.9628249,15.8826601 12.088958,15.7867725 C13.6523452,14.7143446 15.6516646,14.1691137 17.6842105,14.2609007 C19.7248964,14.1831085 21.7251762,14.7466342 23.279463,15.8372146 C23.4055961,15.9331021 23.5890685,15.9579073 23.7458728,15.9002724 C23.9026772,15.8426375 24.002623,15.7136594 23.9999476,15.5723939 C23.6699656,7.81128088 21.0798771,1.75245637 17.8954208,1.4949796 C17.8252996,1.48931001 17.7548903,1.48645333 17.6842105,1.48645333 Z" id="Shape" fill="#DEEBFF" fill-rule="nonzero"></path>
                    <path d="M17.6842105,1.48645333 C14.4037063,1.48645333 11.7057216,7.64038259 11.3684735,15.5219518 C11.3657981,15.6632174 11.4657439,15.7921955 11.6225482,15.8498304 C11.7793526,15.9074653 11.9628249,15.8826601 12.088958,15.7867725 C13.6523452,14.7143446 15.6516646,14.1691137 17.6842105,14.2609007 C19.7248964,14.1831085 21.7251762,14.7466342 23.279463,15.8372146 C23.4055961,15.9331021 23.5890685,15.9579073 23.7458728,15.9002724 C23.9026772,15.8426375 24.002623,15.7136594 23.9999476,15.5723939 C23.6699656,7.81128088 21.0798771,1.75245637 17.8954208,1.4949796 C17.8252996,1.48931001 17.7548903,1.48645333 17.6842105,1.48645333 Z" id="Shape" stroke="#2684FF" stroke-width="1.21552953" fill-rule="nonzero"></path>
                </g>
            </g>
        </g>
    </g>
</svg>