<?xml version="1.0" encoding="utf-8"?>
<!-- Generator: Adobe Illustrator 23.0.1, SVG Export Plug-In . SVG Version: 6.00 Build 0)  -->
<svg version="1.1" id="Layer_1" xmlns="http://www.w3.org/2000/svg" xmlns:xlink="http://www.w3.org/1999/xlink" x="0px" y="0px"
	 viewBox="0 0 163.1 96.5" style="enable-background:new 0 0 163.1 96.5;" xml:space="preserve">
<style type="text/css">
	.st0{fill:none;stroke:#2684FF;stroke-width:1.3292;stroke-linecap:round;stroke-miterlimit:10;}
	.st1{clip-path:url(#SVGID_2_);fill:#DEEBFF;}
	.st2{clip-path:url(#SVGID_4_);fill:#2684FF;}
	.st3{clip-path:url(#SVGID_6_);fill:#2684FF;}
	.st4{clip-path:url(#SVGID_8_);fill:#2684FF;}
	.st5{clip-path:url(#SVGID_10_);fill:#DEEBFF;}
	.st6{fill:none;stroke:#2684FF;stroke-width:1.3292;stroke-miterlimit:10;}
	.st7{clip-path:url(#SVGID_12_);enable-background:new    ;}
	.st8{clip-path:url(#SVGID_14_);}
	.st9{clip-path:url(#SVGID_16_);fill:none;stroke:#2684FF;stroke-width:1.3292;stroke-miterlimit:10;}
	.st10{clip-path:url(#SVGID_18_);fill:#DEEBFF;}
	.st11{clip-path:url(#SVGID_20_);fill:#DEEBFF;}
	.st12{clip-path:url(#SVGID_22_);fill:#1F84F8;}
	.st13{clip-path:url(#SVGID_24_);fill:#1F84F8;}
	.st14{clip-path:url(#SVGID_26_);fill:#DFE6FB;}
	.st15{fill:none;stroke:#2684FF;stroke-width:0.5;stroke-miterlimit:10;}
	.st16{clip-path:url(#SVGID_28_);fill:#2684FF;}
	.st17{clip-path:url(#SVGID_30_);fill:#2684FF;}
	.st18{clip-path:url(#SVGID_32_);fill:#2684FF;}
	.st19{clip-path:url(#SVGID_34_);fill:#DEEBFF;}
	.st20{fill:none;stroke:#2684FF;stroke-width:1.3949;stroke-miterlimit:10;}
	.st21{clip-path:url(#SVGID_36_);enable-background:new    ;}
	.st22{clip-path:url(#SVGID_38_);}
	.st23{clip-path:url(#SVGID_40_);fill:none;stroke:#2684FF;stroke-width:1.3949;stroke-miterlimit:10;}
	.st24{clip-path:url(#SVGID_42_);fill:#2684FF;}
	.st25{clip-path:url(#SVGID_44_);fill:#2684FF;}
	.st26{clip-path:url(#SVGID_46_);fill:#2684FF;}
	.st27{clip-path:url(#SVGID_48_);fill:#2684FF;}
	.st28{clip-path:url(#SVGID_50_);fill:#2684FF;}
	.st29{clip-path:url(#SVGID_52_);fill:#DEEBFF;}
	.st30{clip-path:url(#SVGID_54_);fill:#DEEBFF;}
	.st31{clip-path:url(#SVGID_56_);fill:#DEEBFF;}
	.st32{clip-path:url(#SVGID_58_);fill:#2684FF;}
	.st33{clip-path:url(#SVGID_60_);fill:#2684FF;}
	.st34{fill:none;stroke:#2684FF;stroke-width:0.9297;stroke-miterlimit:10;}
	.st35{clip-path:url(#SVGID_62_);fill:#DEEBFF;}
	.st36{clip-path:url(#SVGID_64_);fill:#FFFFFF;}
	.st37{clip-path:url(#SVGID_66_);enable-background:new    ;}
	.st38{clip-path:url(#SVGID_68_);}
	.st39{clip-path:url(#SVGID_70_);fill:#DEEBFF;}
	.st40{clip-path:url(#SVGID_72_);enable-background:new    ;}
	.st41{clip-path:url(#SVGID_74_);}
	.st42{clip-path:url(#SVGID_76_);fill:none;stroke:#2684FF;stroke-width:0.9297;stroke-miterlimit:10;}
	.st43{fill:#2684FF;}
	.st44{fill-rule:evenodd;clip-rule:evenodd;fill:#DEEBFF;}
	.st45{fill:none;stroke:#2684FF;stroke-linecap:round;stroke-linejoin:round;}
	.st46{fill:none;stroke:#2684FF;stroke-width:0.648;stroke-linecap:round;stroke-linejoin:round;}
	.st47{fill:none;stroke:#2684FF;stroke-linecap:round;}
	.st48{fill:none;stroke:#2684FF;}
	.st49{fill-rule:evenodd;clip-rule:evenodd;fill:#FFFFFF;}
	.st50{filter:url(#Adobe_OpacityMaskFilter);}
	.st51{mask:url(#mask-2_2_);fill-rule:evenodd;clip-rule:evenodd;fill:#FFFFFF;}
</style>
<g>
	<path class="st0" d="M29.3,15.8c1.3,0.3,2.3,1.5,2.3,3v24.6c0,1.7-1.4,3.1-3.1,3.1H7c-1.7,0-3.1-1.4-3.1-3.1V18.8
		c0-1.4,1-2.6,2.3-3"/>
	<g>
		<g>
			<g>
				<g>
					<defs>
						<path id="SVGID_1_" d="M11.4,31.5h12.8c1.7,0,3,1.3,3,3v5.2c0,1.7-1.3,3-3,3H11.4c-1.7,0-3-1.3-3-3v-5.2
							C8.4,32.8,9.7,31.5,11.4,31.5z"/>
					</defs>
					<clipPath id="SVGID_2_">
						<use xlink:href="#SVGID_1_"  style="overflow:visible;"/>
					</clipPath>
					<rect x="3.4" y="26.5" class="st1" width="28.7" height="21.2"/>
				</g>
			</g>
		</g>
	</g>
	<path class="st0" d="M27.8,20.3c0,3.8,0,9.4,0,17c0,3-2.4,5.4-5.4,5.4h-9.3c-3,0-5.4-2.4-5.4-5.4c0-7.5,0-13.2,0-17"/>
	<g>
		<g>
			<g>
				<g>
					<defs>
						<path id="SVGID_3_" d="M20.8,13.4c-0.4,0-0.7-0.3-0.7-0.8V8c0-0.4,0.3-0.8,0.7-0.8c0.4,0,0.7,0.3,0.7,0.8v4.6
							C21.5,13.1,21.1,13.4,20.8,13.4z"/>
					</defs>
					<clipPath id="SVGID_4_">
						<use xlink:href="#SVGID_3_"  style="overflow:visible;"/>
					</clipPath>
					<rect x="15.1" y="2.3" class="st2" width="11.4" height="16.2"/>
				</g>
			</g>
		</g>
	</g>
	<g>
		<g>
			<g>
				<g>
					<defs>
						<path id="SVGID_5_" d="M14.6,13.4c-0.4,0-0.7-0.3-0.7-0.8V8c0-0.4,0.3-0.8,0.7-0.8s0.7,0.3,0.7,0.8v4.6
							C15.3,13.1,15,13.4,14.6,13.4z"/>
					</defs>
					<clipPath id="SVGID_6_">
						<use xlink:href="#SVGID_5_"  style="overflow:visible;"/>
					</clipPath>
					<rect x="8.9" y="2.3" class="st3" width="11.4" height="16.2"/>
				</g>
			</g>
		</g>
	</g>
	<g>
		<g>
			<g>
				<g>
					<defs>
						<path id="SVGID_7_" d="M13.9,5h7.7c0.9,0,1.5,0.6,1.5,1.4s-0.7,1.4-1.5,1.4h-7.7c-0.9,0-1.5-0.6-1.5-1.4C12.4,5.6,13,5,13.9,5
							z"/>
					</defs>
					<clipPath id="SVGID_8_">
						<use xlink:href="#SVGID_7_"  style="overflow:visible;"/>
					</clipPath>
					<rect x="7.4" class="st4" width="20.8" height="12.8"/>
				</g>
			</g>
		</g>
	</g>
	<g>
		<g>
			<g>
				<g>
					<defs>
						<path id="SVGID_9_" d="M9.8,18.2h15.9c1.2,0,2.1,0.9,2.1,2.1s-0.9,2.1-2.1,2.1H9.8c-1.2,0-2.1-0.9-2.1-2.1
							C7.7,19.1,8.6,18.2,9.8,18.2z"/>
					</defs>
					<clipPath id="SVGID_10_">
						<use xlink:href="#SVGID_9_"  style="overflow:visible;"/>
					</clipPath>
					<rect x="2.7" y="13.2" class="st5" width="30.1" height="14.2"/>
				</g>
			</g>
		</g>
	</g>
	<path class="st6" d="M7.9,13.3h19.7c0.9,0,1.6,0.7,1.6,1.5v1.5c0,3.4-2.9,6.2-6.6,6.2h-9.9c-3.6,0-6.6-2.8-6.6-6.2v-1.5
		C6.3,14,7,13.3,7.9,13.3z"/>
	<g>
		<g>
			<g>
				<g>
					<defs>
						<path id="SVGID_11_" d="M7.9,13.3h19.7c0.9,0,1.6,0.7,1.6,1.5v1.5c0,3.4-2.9,6.2-6.6,6.2h-9.9c-3.6,0-6.6-2.8-6.6-6.2v-1.5
							C6.3,14,7,13.3,7.9,13.3z"/>
					</defs>
					<clipPath id="SVGID_12_">
						<use xlink:href="#SVGID_11_"  style="overflow:visible;"/>
					</clipPath>
					<g class="st7">
						<g>
							<g>
								<g>
									<g>
										<defs>
											<rect id="SVGID_13_" x="-1.3" y="6" width="38" height="24"/>
										</defs>
										<clipPath id="SVGID_14_">
											<use xlink:href="#SVGID_13_"  style="overflow:visible;"/>
										</clipPath>
										<g class="st8">
											<g>
												<g>
													<g>
														<defs>
															<rect id="SVGID_15_" x="5.7" y="13" width="24" height="10"/>
														</defs>
														<clipPath id="SVGID_16_">
															<use xlink:href="#SVGID_15_"  style="overflow:visible;"/>
														</clipPath>
														<path class="st9" d="M7.9,13.3h19.7c0.9,0,1.6,0.7,1.6,1.5v1.5c0,3.4-2.9,6.2-6.6,6.2h-9.9c-3.6,0-6.6-2.8-6.6-6.2
															v-1.5C6.3,14,7,13.3,7.9,13.3z"/>
													</g>
												</g>
											</g>
										</g>
									</g>
								</g>
							</g>
						</g>
					</g>
				</g>
			</g>
		</g>
	</g>
	<g>
		<g>
			<g>
				<g>
					<defs>
						<path id="SVGID_17_" d="M7.7,46.5h4.6V48c0,0.8-0.7,1.5-1.5,1.5H9.3c-0.9,0-1.5-0.7-1.5-1.5v-1.5H7.7z"/>
					</defs>
					<clipPath id="SVGID_18_">
						<use xlink:href="#SVGID_17_"  style="overflow:visible;"/>
					</clipPath>
					<rect x="2.7" y="41.5" class="st10" width="14.6" height="13.1"/>
				</g>
			</g>
		</g>
	</g>
	<path class="st6" d="M7.7,46.5h4.6V48c0,0.8-0.7,1.5-1.5,1.5H9.3c-0.9,0-1.5-0.7-1.5-1.5v-1.5H7.7z"/>
	<g>
		<g>
			<g>
				<g>
					<defs>
						<path id="SVGID_19_" d="M23.2,46.5h4.6V48c0,0.8-0.7,1.5-1.5,1.5h-1.5c-0.9,0-1.5-0.7-1.5-1.5v-1.5H23.2z"/>
					</defs>
					<clipPath id="SVGID_20_">
						<use xlink:href="#SVGID_19_"  style="overflow:visible;"/>
					</clipPath>
					<rect x="18.2" y="41.5" class="st11" width="14.6" height="13.1"/>
				</g>
			</g>
		</g>
	</g>
	<path class="st6" d="M23.2,46.5h4.6V48c0,0.8-0.7,1.5-1.5,1.5h-1.5c-0.9,0-1.5-0.7-1.5-1.5v-1.5H23.2z"/>
	<g>
		<g>
			<g>
				<g>
					<defs>
						<path id="SVGID_21_" d="M22.8,36.3H12.7c-0.3,0-0.6-0.3-0.6-0.8s0.3-0.8,0.6-0.8h10.1c0.3,0,0.6,0.3,0.6,0.8
							S23.1,36.3,22.8,36.3z"/>
					</defs>
					<clipPath id="SVGID_22_">
						<use xlink:href="#SVGID_21_"  style="overflow:visible;"/>
					</clipPath>
					<rect x="7.1" y="29.8" class="st12" width="21.3" height="11.5"/>
				</g>
			</g>
		</g>
	</g>
	<g>
		<g>
			<g>
				<g>
					<defs>
						<path id="SVGID_23_" d="M13.7,37.9c-0.4,0-0.8-0.3-0.8-0.8v-1.5c0-0.4,0.3-0.8,0.8-0.8c0.4,0,0.8,0.3,0.8,0.8v1.5
							C14.5,37.5,14.2,37.9,13.7,37.9z"/>
					</defs>
					<clipPath id="SVGID_24_">
						<use xlink:href="#SVGID_23_"  style="overflow:visible;"/>
					</clipPath>
					<rect x="8" y="29.8" class="st13" width="11.5" height="13.1"/>
				</g>
			</g>
		</g>
	</g>
</g>
<g>
	<g>
		<g>
			<defs>
				<path id="SVGID_25_" d="M149.4,36.7h-7.6c-0.6,0-1-0.5-1-1.1V21.7c0-0.6,0.5-1.1,1-1.1h7.6c0.6,0,1,0.5,1,1.1v13.9
					C150.4,36.2,150,36.7,149.4,36.7z"/>
			</defs>
			<clipPath id="SVGID_26_">
				<use xlink:href="#SVGID_25_"  style="overflow:visible;"/>
			</clipPath>
			<rect x="135.7" y="15.7" class="st14" width="19.7" height="26"/>
		</g>
	</g>
</g>
<path class="st15" d="M149.4,36.7h-7.6c-0.6,0-1-0.5-1-1.1V21.7c0-0.6,0.5-1.1,1-1.1h7.6c0.6,0,1,0.5,1,1.1v13.9
	C150.4,36.2,150,36.7,149.4,36.7z"/>
<g>
	<g>
		<g>
			<defs>
				<circle id="SVGID_27_" cx="145.6" cy="34.8" r="0.9"/>
			</defs>
			<clipPath id="SVGID_28_">
				<use xlink:href="#SVGID_27_"  style="overflow:visible;"/>
			</clipPath>
			<rect x="139.7" y="28.9" class="st16" width="11.8" height="11.9"/>
		</g>
	</g>
</g>
<g>
	<g>
		<g>
			<defs>
				<path id="SVGID_29_" d="M145.6,21.9h-1.2c-0.2,0-0.3-0.1-0.3-0.3c0-0.2,0.1-0.3,0.3-0.3h1.2c0.2,0,0.3,0.1,0.3,0.3
					C145.9,21.8,145.7,21.9,145.6,21.9z"/>
			</defs>
			<clipPath id="SVGID_30_">
				<use xlink:href="#SVGID_29_"  style="overflow:visible;"/>
			</clipPath>
			<rect x="139.1" y="16.3" class="st17" width="11.8" height="10.6"/>
		</g>
	</g>
</g>
<g>
	<g>
		<g>
			<defs>
				<path id="SVGID_31_" d="M146.8,21.9h-0.3c-0.2,0-0.3-0.1-0.3-0.3c0-0.2,0.1-0.3,0.3-0.3h0.3c0.2,0,0.3,0.1,0.3,0.3
					S146.9,21.9,146.8,21.9z"/>
			</defs>
			<clipPath id="SVGID_32_">
				<use xlink:href="#SVGID_31_"  style="overflow:visible;"/>
			</clipPath>
			<rect x="141.2" y="16.3" class="st18" width="10.9" height="10.6"/>
		</g>
	</g>
</g>
<g>
	<g>
		<g>
			<g>
				<g>
					<defs>
						<path id="SVGID_33_" d="M65.9,49.7c0,1-1.3,1.8-3,1.8h-1.8c-1.6,0-3-0.8-3-1.8v-10c0-1,1.3-1.8,3-1.8h1.8c1.6,0,3,0.8,3,1.8
							V49.7z"/>
					</defs>
					<clipPath id="SVGID_34_">
						<use xlink:href="#SVGID_33_"  style="overflow:visible;"/>
					</clipPath>
					<rect x="53.3" y="32.9" class="st19" width="17.7" height="23.6"/>
				</g>
			</g>
		</g>
	</g>
	<path class="st20" d="M65.9,48.5c0,1.7-1.3,3-3,3h-1.8c-1.6,0-3-1.3-3-3V31.7c0-1.7,1.3-3,3-3h1.8c1.6,0,3,1.3,3,3V48.5z"/>
	<g>
		<g>
			<g>
				<g>
					<defs>
						<path id="SVGID_35_" d="M65.9,48.5c0,1.7-1.3,3-3,3h-1.8c-1.6,0-3-1.3-3-3V31.7c0-1.7,1.3-3,3-3h1.8c1.6,0,3,1.3,3,3V48.5z"/>
					</defs>
					<clipPath id="SVGID_36_">
						<use xlink:href="#SVGID_35_"  style="overflow:visible;"/>
					</clipPath>
					<g class="st21">
						<g>
							<g>
								<g>
									<g>
										<defs>
											<rect id="SVGID_37_" x="50.7" y="21.5" width="23" height="37"/>
										</defs>
										<clipPath id="SVGID_38_">
											<use xlink:href="#SVGID_37_"  style="overflow:visible;"/>
										</clipPath>
										<g class="st22">
											<g>
												<g>
													<g>
														<defs>
															<rect id="SVGID_39_" x="57.7" y="28.5" width="9" height="23"/>
														</defs>
														<clipPath id="SVGID_40_">
															<use xlink:href="#SVGID_39_"  style="overflow:visible;"/>
														</clipPath>
														<path class="st23" d="M65.9,48.5c0,1.7-1.3,3-3,3h-1.8c-1.6,0-3-1.3-3-3V31.7c0-1.7,1.3-3,3-3h1.8c1.6,0,3,1.3,3,3
															V48.5z"/>
													</g>
												</g>
											</g>
										</g>
									</g>
								</g>
							</g>
						</g>
					</g>
				</g>
			</g>
		</g>
	</g>
	<g>
		<g>
			<g>
				<g>
					<defs>
						<path id="SVGID_41_" d="M68.3,23.6c0-0.6,0.3-1.1,0.6-1.1h0.4c0.3,0,0.6,0.5,0.6,1.1V41c0,0.6-0.3,1.1-0.6,1.1h-0.4
							c-0.3,0-0.6-0.5-0.6-1.1V23.6z"/>
					</defs>
					<clipPath id="SVGID_42_">
						<use xlink:href="#SVGID_41_"  style="overflow:visible;"/>
					</clipPath>
					<rect x="63.3" y="17.5" class="st24" width="11.5" height="29.5"/>
				</g>
			</g>
		</g>
	</g>
	<g>
		<g>
			<g>
				<g>
					<defs>
						<path id="SVGID_43_" d="M54.4,23.6c0-0.6,0.3-1.1,0.6-1.1h0.4c0.3,0,0.6,0.5,0.6,1.1V41c0,0.6-0.3,1.1-0.6,1.1H55
							c-0.3,0-0.6-0.5-0.6-1.1V23.6z"/>
					</defs>
					<clipPath id="SVGID_44_">
						<use xlink:href="#SVGID_43_"  style="overflow:visible;"/>
					</clipPath>
					<rect x="49.4" y="17.5" class="st25" width="11.5" height="29.5"/>
				</g>
			</g>
		</g>
	</g>
	<g>
		<g>
			<g>
				<g>
					<defs>
						<path id="SVGID_45_" d="M65.9,26.6v-0.2c0-1.3-1.3-2.3-3-2.3h-1.8c-1.6,0-3,1-3,2.3v0.2H65.9z"/>
					</defs>
					<clipPath id="SVGID_46_">
						<use xlink:href="#SVGID_45_"  style="overflow:visible;"/>
					</clipPath>
					<rect x="53.3" y="19.1" class="st26" width="17.7" height="12.5"/>
				</g>
			</g>
		</g>
	</g>
	<g>
		<g>
			<g>
				<g>
					<defs>
						<path id="SVGID_47_" d="M55,12.3c-5-0.2-7.2-0.6-7.2-0.6c-0.6,0-1.1,0.5-1.1,1.1v0.7c0,0.6,0.5,1.1,1.1,1.1
							c0,0,1.4,0.4,6.3,0.6C54.3,14.2,54.6,13.2,55,12.3z"/>
					</defs>
					<clipPath id="SVGID_48_">
						<use xlink:href="#SVGID_47_"  style="overflow:visible;"/>
					</clipPath>
					<rect x="41.7" y="6.8" class="st27" width="18.3" height="13.4"/>
				</g>
			</g>
		</g>
	</g>
	<g>
		<g>
			<g>
				<g>
					<defs>
						<path id="SVGID_49_" d="M77.4,12.9c0-0.6-0.5-1.1-1.1-1.1c0,0-2.2,0.4-7.2,0.6c0.5,0.9,0.8,1.8,0.9,2.9c5-0.2,6.4-0.6,6.4-0.6
							c0.6,0,1.1-0.5,1.1-1.1L77.4,12.9z"/>
					</defs>
					<clipPath id="SVGID_50_">
						<use xlink:href="#SVGID_49_"  style="overflow:visible;"/>
					</clipPath>
					<rect x="64" y="6.8" class="st28" width="18.3" height="13.5"/>
				</g>
			</g>
		</g>
	</g>
	<g>
		<g>
			<g>
				<g>
					<defs>
						<ellipse id="SVGID_51_" cx="62.1" cy="18.9" rx="5.4" ry="2.5"/>
					</defs>
					<clipPath id="SVGID_52_">
						<use xlink:href="#SVGID_51_"  style="overflow:visible;"/>
					</clipPath>
					<rect x="51.7" y="11.4" class="st29" width="20.8" height="15"/>
				</g>
			</g>
		</g>
	</g>
	<path class="st20" d="M62.1,11c-3,0-5.4,2.4-5.4,5.4s2.4,5.4,5.4,5.4s5.4-2.4,5.4-5.4S65.1,11,62.1,11z"/>
	<g>
		<g>
			<g>
				<g>
					<defs>
						<circle id="SVGID_53_" cx="74.4" cy="5.6" r="3.1"/>
					</defs>
					<clipPath id="SVGID_54_">
						<use xlink:href="#SVGID_53_"  style="overflow:visible;"/>
					</clipPath>
					<rect x="66.3" y="-2.5" class="st30" width="16.2" height="16.2"/>
				</g>
			</g>
		</g>
	</g>
	<circle class="st20" cx="74.4" cy="5.6" r="3.1"/>
	<g>
		<g>
			<g>
				<g>
					<defs>
						<circle id="SVGID_55_" cx="49.8" cy="5.6" r="3.1"/>
					</defs>
					<clipPath id="SVGID_56_">
						<use xlink:href="#SVGID_55_"  style="overflow:visible;"/>
					</clipPath>
					<rect x="41.7" y="-2.5" class="st31" width="16.2" height="16.2"/>
				</g>
			</g>
		</g>
	</g>
	<circle class="st20" cx="49.8" cy="5.6" r="3.1"/>
	<g>
		<g>
			<g>
				<g>
					<defs>
						<path id="SVGID_57_" d="M71.3,34.7L71.3,34.7c0.9,0,1.5-1.3,1.5-3v-6.2c0-1.7-0.6-3-1.4-3h-0.1V34.7z"/>
					</defs>
					<clipPath id="SVGID_58_">
						<use xlink:href="#SVGID_57_"  style="overflow:visible;"/>
					</clipPath>
					<rect x="66.3" y="17.5" class="st32" width="11.5" height="22.2"/>
				</g>
			</g>
		</g>
	</g>
	<g>
		<g>
			<g>
				<g>
					<defs>
						<path id="SVGID_59_" d="M52.9,22.5L52.9,22.5c-0.9,0-1.5,1.3-1.5,3v6.2c0,1.7,0.6,3,1.4,3h0.1V22.5z"/>
					</defs>
					<clipPath id="SVGID_60_">
						<use xlink:href="#SVGID_59_"  style="overflow:visible;"/>
					</clipPath>
					<rect x="46.3" y="17.5" class="st33" width="11.5" height="22.2"/>
				</g>
			</g>
		</g>
	</g>
</g>
<g>
	<path class="st34" d="M100.2,14.6h-0.5c-0.3,0-0.5-0.2-0.5-0.4V13c0-0.2,0.2-0.4,0.5-0.4h5.7c0.3,0,0.5,0.2,0.5,0.4v1.2
		c0,0.2-0.2,0.4-0.5,0.4h-0.5v2h-4.8v-2C100.1,14.6,100.2,14.6,100.2,14.6z"/>
	<g>
		<g>
			<g>
				<g>
					<defs>
						<path id="SVGID_61_" d="M95.5,36.7v5.2c0,0.3,0.7,0.6,1.6,0.6h20.6c0.9,0,1.6-0.3,1.6-0.6v-5.2H95.5z"/>
					</defs>
					<clipPath id="SVGID_62_">
						<use xlink:href="#SVGID_61_"  style="overflow:visible;"/>
					</clipPath>
					<rect x="90.5" y="31.7" class="st35" width="33.7" height="15.7"/>
				</g>
			</g>
		</g>
	</g>
	<path class="st34" d="M95.5,28.1V41c0,0.8,0.7,1.4,1.6,1.4h20.6c0.9,0,1.6-0.6,1.6-1.4V28.1H95.5z"/>
	<g>
		<g>
			<g>
				<g>
					<defs>
						<path id="SVGID_63_" d="M109.5,31.4h-4.6c-0.6,0-1,0.5-1,1.1v9.8h6.7v-9.8C110.5,31.9,110.2,31.4,109.5,31.4z"/>
					</defs>
					<clipPath id="SVGID_64_">
						<use xlink:href="#SVGID_63_"  style="overflow:visible;"/>
					</clipPath>
					<rect x="98.9" y="26.4" class="st36" width="16.7" height="21"/>
				</g>
			</g>
		</g>
	</g>
	<path class="st34" d="M109.5,31.4h-4.6c-0.6,0-1,0.5-1,1.1v9.8h6.7v-9.8C110.5,31.9,110.2,31.4,109.5,31.4z"/>
	<path class="st34" d="M101.2,34.7c0,0.2-0.2,0.3-0.5,0.3h-2.4c-0.3,0-0.5-0.1-0.5-0.3V32c0-0.2,0.2-0.3,0.5-0.3h2.4
		c0.3,0,0.5,0.1,0.5,0.3V34.7L101.2,34.7z"/>
	<path class="st34" d="M116.9,34.7c0,0.2-0.2,0.3-0.5,0.3H114c-0.3,0-0.5-0.1-0.5-0.3V32c0-0.2,0.2-0.3,0.5-0.3h2.4
		c0.3,0,0.5,0.1,0.5,0.3V34.7z"/>
	<g>
		<g>
			<g>
				<g>
					<defs>
						<path id="SVGID_65_" d="M92.8,27.4c-0.3-0.4-0.3-0.8,0-1.2l2.6-3.8h23.9l2.6,3.8c0.3,0.4,0.3,0.8,0,1.2
							c-0.3,0.4-0.7,0.6-1.3,0.6H94C93.5,28,93.2,27.8,92.8,27.4z"/>
					</defs>
					<clipPath id="SVGID_66_">
						<use xlink:href="#SVGID_65_"  style="overflow:visible;"/>
					</clipPath>
					<g class="st37">
						<g>
							<g>
								<g>
									<g>
										<defs>
											<rect id="SVGID_67_" x="87.7" y="16.6" width="40" height="17"/>
										</defs>
										<clipPath id="SVGID_68_">
											<use xlink:href="#SVGID_67_"  style="overflow:visible;"/>
										</clipPath>
										<g class="st38">
											<g>
												<g>
													<g>
														<defs>
															<rect id="SVGID_69_" x="91.7" y="21.6" width="31" height="7"/>
														</defs>
														<clipPath id="SVGID_70_">
															<use xlink:href="#SVGID_69_"  style="overflow:visible;"/>
														</clipPath>
														<rect x="87.7" y="17.4" class="st39" width="39.5" height="15.6"/>
													</g>
												</g>
											</g>
										</g>
									</g>
								</g>
							</g>
						</g>
					</g>
				</g>
			</g>
		</g>
	</g>
	<path class="st34" d="M94,28c-0.5,0-1-0.3-1.3-0.7c-0.3-0.4-0.3-1,0-1.4l5.2-8.6c0.3-0.4,0.7-0.7,1.3-0.7h16.2c0.5,0,1,0.3,1.3,0.7
		l5.2,8.6c0.3,0.4,0.3,1,0,1.4s-0.7,0.7-1.3,0.7H94z"/>
	<g>
		<g>
			<g>
				<g>
					<defs>
						<path id="SVGID_71_" d="M94,28c-0.5,0-1-0.3-1.3-0.7c-0.3-0.4-0.3-1,0-1.4l5.2-8.6c0.3-0.4,0.7-0.7,1.3-0.7h16.2
							c0.5,0,1,0.3,1.3,0.7l5.2,8.6c0.3,0.4,0.3,1,0,1.4s-0.7,0.7-1.3,0.7H94z"/>
					</defs>
					<clipPath id="SVGID_72_">
						<use xlink:href="#SVGID_71_"  style="overflow:visible;"/>
					</clipPath>
					<g class="st40">
						<g>
							<g>
								<g>
									<g>
										<defs>
											<rect id="SVGID_73_" x="87.7" y="11.6" width="40" height="22"/>
										</defs>
										<clipPath id="SVGID_74_">
											<use xlink:href="#SVGID_73_"  style="overflow:visible;"/>
										</clipPath>
										<g class="st41">
											<g>
												<g>
													<g>
														<defs>
															<rect id="SVGID_75_" x="91.7" y="15.6" width="31" height="13"/>
														</defs>
														<clipPath id="SVGID_76_">
															<use xlink:href="#SVGID_75_"  style="overflow:visible;"/>
														</clipPath>
														<path class="st42" d="M94,28c-0.5,0-1-0.3-1.3-0.7c-0.3-0.4-0.3-1,0-1.4l5.2-8.6c0.3-0.4,0.7-0.7,1.3-0.7h16.2
															c0.5,0,1,0.3,1.3,0.7l5.2,8.6c0.3,0.4,0.3,1,0,1.4s-0.7,0.7-1.3,0.7H94z"/>
													</g>
												</g>
											</g>
										</g>
									</g>
								</g>
							</g>
						</g>
					</g>
				</g>
			</g>
		</g>
	</g>
</g>
<g id="Page-1">
	<g id="Mobile" transform="translate(-16.000000, -89.000000)">
		<g id="Home" transform="translate(-5.000000, 0.000000)">
			<g id="Group-2" transform="translate(0.000000, 73.000566)">
				<g id="Menu" transform="translate(21.000000, 16.000000)">
					<path id="Shape" class="st43" d="M27.3,75.1H10.8c-0.4,0-0.7,0.4-0.7,0.9s0.3,0.9,0.7,0.9h16.5c0.4,0,0.7-0.4,0.7-0.9
						S27.7,75.1,27.3,75.1z"/>
					<path class="st43" d="M27.3,68H10.8c-0.4,0-0.7,0.4-0.7,0.9s0.3,0.9,0.7,0.9h16.5c0.4,0,0.7-0.4,0.7-0.9S27.7,68,27.3,68z"/>
					<path class="st43" d="M27.3,82.1H10.8c-0.4,0-0.7,0.4-0.7,0.9s0.3,0.9,0.7,0.9h16.5c0.4,0,0.7-0.4,0.7-0.9S27.7,82.1,27.3,82.1
						z"/>
				</g>
			</g>
		</g>
	</g>
</g>
<g id="Page-1_1_">
	<g id="Mobile_1_" transform="translate(-322.000000, -86.000000)">
		<g id="Home_1_" transform="translate(-5.000000, 0.000000)">
			<g transform="translate(0.000000, 73.000566)">
				<g id="My-Account_Mobile" transform="translate(328.000000, 14.000000)">
					<g id="Group-2_1_">
						<path id="Path-3" class="st44" d="M55.7,82.8c2.2,0.7,3.8,1,4.8,1s2.6-0.3,4.8-1l0.5,3c-1.1,0.5-1.9,0.8-2.5,0.9
							s-1.4,0.2-2.5,0.3c-1.2,0-2.1-0.1-2.8-0.3c-0.7-0.2-1.6-0.4-2.8-0.9L55.7,82.8z"/>
						<path id="Path" class="st44" d="M65.3,76c0.3,0,0.3-0.4,0.3-0.4c0-2.8-2.3-5.1-5.1-5.1s-5.1,2.3-5.1,5.1c0,0,0,0.4,0.3,0.4
							c0.5,0,0.8,0.2,0.7,0.8h0.7v-1.2H59l2.5-0.8H62l0.9,0.6l1,0.4v1h0.4L65.3,76z"/>
						<path class="st45" d="M63.3,80.5c1.5,0.9,2.5,2.6,2.5,4.5c0,0.3,0,0.4,0,0.6"/>
						<path class="st45" d="M57.3,80.4c-1.1,0.9-2.1,2.7-2.1,4.6c0,0.3,0,0.5,0,0.6"/>
						<path class="st46" d="M55.4,76.6v1.1c0,0.4,0.3,0.7,0.7,0.7l0,0"/>
						<path class="st46" d="M65.5,76.6v1.1c0,0.4-0.3,0.7-0.7,0.7l0,0"/>
						<path class="st47" d="M64.5,77.6c0,2.2-1.8,3.9-4,3.9l0,0c-2.2,0-4-1.7-4-3.9"/>
						<path class="st45" d="M65.3,76c0.3,0,0.3-0.4,0.3-0.4c0-2.8-2.3-5.1-5.1-5.1s-5.1,2.3-5.1,5.1c0,0,0,0.4,0.3,0.4
							c0.8,0,0.8,1.5,0.8,1.5"/>
						<path class="st45" d="M63.9,77v-1.3c-0.8,0.1-1.9-1.1-1.9-1.1c-1.4,1.5-4.9,1.1-4.9,1.1V77"/>
						<path class="st46" d="M64.5,77.7L64.5,77.7c0,0,0-1.7,0.8-1.7l0,0"/>
						<path class="st46" d="M56.4,78.4h-0.3"/>
						<circle id="Oval" class="st48" cx="60.5" cy="76.5" r="10.5"/>
					</g>
				</g>
			</g>
		</g>
	</g>
</g>
<g id="Artboard">
	<g id="Group-12" transform="translate(1.000000, 0.000000)">
		<path id="Fill-1" class="st49" d="M87.64,76.66c0.55,0,1-0.45,1-1.03c0-0.55-0.45-1-1-1c-0.55,0-1.03,0.45-1.03,1
			C86.64,76.21,87.08,76.66,87.64,76.66"/>
		<g id="Group-5" transform="translate(32.000000, 0.850000)">
			<g id="Clip-4">
			</g>
			<defs>
				<filter id="Adobe_OpacityMaskFilter" filterUnits="userSpaceOnUse" x="58.48" y="70.61" width="2.8" height="8.39">
					<feColorMatrix  type="matrix" values="1 0 0 0 0  0 1 0 0 0  0 0 1 0 0  0 0 0 1 0"/>
				</filter>
			</defs>
			<mask maskUnits="userSpaceOnUse" x="58.48" y="70.61" width="2.8" height="8.39" id="mask-2_2_">
				<g class="st50">
					<polygon id="path-1_2_" class="st49" points="58.48,70.61 61.28,70.61 61.28,79 58.48,79 					"/>
				</g>
			</mask>
			<path id="Fill-3" class="st51" d="M59.64,70.81L59.64,70.81c-0.26-0.26-0.69-0.26-0.95,0c-0.26,0.26-0.26,0.68,0,0.95
				c1.69,1.69,1.69,4.43,0,6.09c-0.13,0.13-0.21,0.32-0.21,0.5s0.08,0.34,0.18,0.47C58.8,78.95,58.96,79,59.14,79
				c0.18,0,0.34-0.08,0.47-0.18C61.83,76.6,61.83,73.02,59.64,70.81"/>
		</g>
		<path id="Fill-6" class="st49" d="M89.06,77.06c-0.26,0.26-0.26,0.68,0,0.95c0.13,0.13,0.29,0.18,0.47,0.18
			c0.18,0,0.34-0.08,0.47-0.18c1.29-1.29,1.29-3.4,0-4.72c-0.26-0.26-0.69-0.26-0.95,0c-0.13,0.13-0.18,0.29-0.18,0.47
			c0,0.18,0.08,0.34,0.18,0.47C89.82,75.03,89.82,76.29,89.06,77.06"/>
		<path id="Fill-8" class="st49" d="M84.13,79.85c0.18,0,0.34-0.08,0.47-0.18c0.13-0.13,0.18-0.29,0.18-0.47
			c0-0.18-0.08-0.34-0.18-0.47c-1.69-1.69-1.69-4.43,0-6.09c0.13-0.13,0.18-0.29,0.18-0.47c0-0.18-0.08-0.34-0.18-0.47
			c-0.26-0.26-0.69-0.26-0.95,0c-2.21,2.21-2.21,5.8,0,7.98C83.77,79.8,83.95,79.85,84.13,79.85"/>
		<path id="Fill-10" class="st49" d="M85.29,78.03c0.13,0.13,0.29,0.18,0.47,0.18c0.18,0,0.34-0.08,0.47-0.18
			c0.13-0.13,0.18-0.29,0.18-0.47c0-0.18-0.08-0.34-0.18-0.47c-0.79-0.79-0.79-2.03,0-2.82c0.26-0.26,0.26-0.68,0-0.95
			s-0.69-0.26-0.95,0C83.98,74.61,84,76.72,85.29,78.03"/>
	</g>
</g>
</svg>
