<?xml version="1.0" encoding="UTF-8"?>
<svg width="40px" height="40px" viewBox="0 0 40 40" version="1.1" xmlns="http://www.w3.org/2000/svg" xmlns:xlink="http://www.w3.org/1999/xlink">
    <!-- Generator: Sketch 55 (78076) - https://sketchapp.com -->
    <title>Marine Insurance</title>
    <desc>Created with Sketch.</desc>
    <g id="Page-1" stroke="none" stroke-width="1" fill="none" fill-rule="evenodd">
        <g id="Artboard-Copy-13">
            <g id="Group-2" transform="translate(-2.400000, 3.000000)">
                <path d="M23.4058208,6.27803169 L23.4297835,10.1132661 L33.677243,10.1570213 L33.6532803,6.32178685 L23.4058208,6.27803169 Z" id="Rectangle-Copy-2" stroke="#2684FF" stroke-width="1.3" fill="#FFFFFF" transform="translate(28.541532, 8.217526) rotate(14.000000) translate(-28.541532, -8.217526) "></path>
                <path d="M34.2760676,14.3995945 L34.2934341,17.9879145 L37.7927648,18.0051643 L37.7753983,14.4168443 L34.2760676,14.3995945 Z" id="Rectangle-Copy-3" stroke="#2684FF" stroke-width="1.3" fill="#FFFFFF" transform="translate(36.034416, 16.202379) rotate(14.000000) translate(-36.034416, -16.202379) "></path>
                <path d="M38.0176409,21.0069564 L38.0323787,24.0521246 L40.9984453,24.0667457 L40.9837075,21.0215776 L38.0176409,21.0069564 Z" id="Rectangle-Copy-4" stroke="#2684FF" stroke-width="1.3" fill="#FFFFFF" transform="translate(39.508043, 22.536851) rotate(14.000000) translate(-39.508043, -22.536851) "></path>
                <path d="M17.4593955,11.5830729 L17.4988145,17.9859454 L31.9442752,18.0479168 L31.9048562,11.6450443 L17.4593955,11.5830729 Z" id="Rectangle-Copy-6" stroke="#2684FF" stroke-width="1.3" fill="#DEEBFF" transform="translate(24.701835, 14.815495) rotate(14.000000) translate(-24.701835, -14.815495) "></path>
                <path d="M6.10819609,6.22502953 L6.15139641,14.5106471 L10.9909317,14.5330868 L10.9477314,6.24746925 L6.10819609,6.22502953 Z" id="Rectangle" stroke="#2684FF" stroke-width="1.3" fill="#FFFFFF" transform="translate(8.549564, 10.379058) rotate(14.000000) translate(-8.549564, -10.379058) "></path>
                <path d="M9.49195749,1.71632386 L9.51246165,5.74164413 L11.3577749,5.75034281 L11.3372707,1.72502253 L9.49195749,1.71632386 Z" id="Rectangle" stroke="#2684FF" stroke-width="1.3" fill="#FFFFFF" transform="translate(10.424866, 3.733333) rotate(14.000000) translate(-10.424866, -3.733333) "></path>
                <path d="M7.93803367,30.1409087 L4.57344142,24.6273511 C9.4055983,23.1509487 13.4310872,22.8131948 16.649908,23.6140895 C21.4781393,24.8154315 23.7609407,25.990096 25.3646761,25.5902399 C26.4765453,25.3130198 31.4017634,21.5666387 31.784424,21.3627782 C32.9569794,20.7381053 33.4787491,20.6080135 33.3497331,20.9725028 L32.9874324,22.2695106 C31.6698558,22.5980193 29.3043799,24.4085917 25.8910045,27.7012277 C19.5566087,26.4966273 15.4358581,26.1320745 13.5287525,26.6075693 C11.621647,27.0830641 9.75807406,28.2608439 7.93803367,30.1409087 Z" id="Path-14" fill="#DEEBFF" transform="translate(18.971179, 25.455975) rotate(14.000000) translate(-18.971179, -25.455975) "></path>
                <polyline id="Path-14" stroke="#2684FF" stroke-width="1.3" stroke-linecap="round" stroke-linejoin="round" transform="translate(18.517150, 23.169037) rotate(14.000000) translate(-18.517150, -23.169037) " points="8.50100901 29.2287912 1.81663503 17.4602226 12.9354063 17.5150322 15.519834 19.4641882 29.6902391 19.5340408 31.4644765 17.109282 35.2176655 17.1277832 32.8595948 22.2060384"></polyline>
                <path d="M3.07211166,29.0885607 C6.94348615,27.0296029 9.68329889,25.8655241 11.2915499,25.5963243 C13.673596,25.1976015 15.7354122,24.5887488 18.674889,26.491143 C21.634472,28.2227548 23.793066,29.0885607 25.1506711,29.0885607 C27.1870786,29.0885607 28.8279369,27.1766285 31.136732,26.1623321 C33.4455271,25.1480358 36.7079905,26.1767159 37.5770339,28.4904461" id="Path-13" stroke="#2684FF" stroke-width="1.3" stroke-linecap="round" stroke-linejoin="round"></path>
            </g>
        </g>
    </g>
</svg>