<?xml version="1.0" encoding="UTF-8"?>
<svg width="40px" height="40px" viewBox="0 0 40 40" version="1.1" xmlns="http://www.w3.org/2000/svg" xmlns:xlink="http://www.w3.org/1999/xlink">
    <!-- Generator: Sketch 55 (78076) - https://sketchapp.com -->
    <title>Office Package</title>
    <desc>Created with Sketch.</desc>
    <g id="Page-1" stroke="none" stroke-width="1" fill="none" fill-rule="evenodd">
        <g id="Artboard-Copy-11" fill-rule="nonzero">
            <g id="Group" transform="translate(2.000000, 1.000000)">
                <path d="M11.9797695,15.8711874 C12.3360648,15.8711874 12.6249983,15.5818859 12.6249983,15.2249922 L12.6249983,11.3130557 C12.6249983,10.9561621 12.3360648,10.6668605 11.9797695,10.6668605 C11.6234741,10.6668605 11.3345407,10.9561621 11.3345407,11.3130557 L11.3345407,15.2250569 C11.3345407,15.5818859 11.6234741,15.8711874 11.9797695,15.8711874 Z" id="XMLID_606_" fill="#2684FF"></path>
                <path d="M17.5538293,13.8199054 C17.9101247,13.8199054 18.1990581,13.5306038 18.1990581,13.1737102 L18.1990581,10.2874147 C18.1990581,9.93052109 17.9101247,9.6412195 17.5538293,9.6412195 C17.197534,9.6412195 16.9086005,9.93052109 16.9086005,10.2874147 L16.9086005,13.1737748 C16.9086005,13.5306038 17.1974695,13.8199054 17.5538293,13.8199054 Z" id="XMLID_639_" fill="#4495FF"></path>
                <path d="M11.3345407,24.7199907 C11.3345407,25.0768843 11.6234741,25.3661859 11.9797695,25.3661859 C12.3360648,25.3661859 12.6249983,25.0768843 12.6249983,24.7199907 L12.6249983,20.8079896 C12.6249983,20.4510959 12.3360648,20.1617944 11.9797695,20.1617944 C11.6234741,20.1617944 11.3345407,20.4510959 11.3345407,20.8079896 L11.3345407,24.7199907 Z" id="XMLID_641_" fill="#2684FF"></path>
                <path d="M4.58112444,21.9592509 C4.2248291,21.9592509 3.93589565,22.2486171 3.93589565,22.6054461 L3.93589565,26.5174473 C3.93589565,26.8742763 4.2248291,27.1636425 4.58112444,27.1636425 C4.93741978,27.1636425 5.22635324,26.8742763 5.22635324,26.5174473 L5.22635324,22.6054461 C5.22635324,22.2486171 4.93741978,21.9592509 4.58112444,21.9592509 Z" id="XMLID_1693_" fill="#2684FF"></path>
                <path d="M4.58112444,29.6567928 C4.2248291,29.6567928 3.93589565,29.946159 3.93589565,30.302988 L3.93589565,34.2149891 C3.93589565,34.5718181 4.2248291,34.8611843 4.58112444,34.8611843 C4.93741978,34.8611843 5.22635324,34.5718181 5.22635324,34.2149891 L5.22635324,30.302988 C5.22635324,29.946159 4.93741978,29.6567928 4.58112444,29.6567928 Z" id="XMLID_1708_" fill="#2684FF"></path>
                <path d="M11.3345407,34.2149891 C11.3345407,34.5718181 11.6234741,34.8611843 11.9797695,34.8611843 C12.3360648,34.8611843 12.6249983,34.5718181 12.6249983,34.2149891 L12.6249983,30.302988 C12.6249983,29.946159 12.3360648,29.6567928 11.9797695,29.6567928 C11.6234741,29.6567928 11.3345407,29.946159 11.3345407,30.302988 L11.3345407,34.2149891 Z" id="XMLID_1712_" fill="#2684FF"></path>
                <path d="M16.9086005,34.2149891 C16.9086005,34.5718181 17.197534,34.8611843 17.5538293,34.8611843 C17.9101247,34.8611843 18.1990581,34.5718181 18.1990581,34.2149891 L18.1990581,30.302988 C18.1990581,29.946159 17.9101247,29.6567928 17.5538293,29.6567928 C17.197534,29.6567928 16.9086005,29.946159 16.9086005,30.302988 L16.9086005,34.2149891 Z" id="XMLID_1713_" fill="#2684FF"></path>
                <path d="M25.163923,7.20719603 L26.0349819,7.20719603 C26.3912772,7.20719603 26.6802107,6.91789444 26.6802107,6.56100083 C26.6802107,6.20410722 26.3912772,5.91480562 26.0349819,5.91480562 L24.5186942,5.91480562 L8.51702009,5.91480562 L7.00073242,5.91480562 C6.64443708,5.91480562 6.35550363,6.20410722 6.35550363,6.56100083 C6.35550363,6.91789444 6.64443708,7.20719603 7.00073242,7.20719603 L7.87179129,7.20719603 L7.87179129,16.1031284 C7.87179129,16.4600221 8.16072475,16.7493236 8.51702009,16.7493236 C8.87331543,16.7493236 9.16224888,16.4600221 9.16224888,16.1031284 L9.16224888,7.20719603 L23.8734654,7.20719603 L23.8734654,37.7076096 L9.16224888,37.7076096 L9.16224888,15.758491 C9.16224888,15.4015974 8.87331543,15.1122958 8.51702009,15.1122958 C8.16072475,15.1122958 7.87179129,15.4015974 7.87179129,15.758491 L7.87179129,18.5802316 L0.645228795,18.5802316 C0.288933454,18.5802316 0,18.8695332 0,19.2264268 L0,38.3538048 C0,38.7106338 0.288933454,39 0.645228795,39 L29.3071522,39 C29.6634475,39 29.952381,38.7106338 29.952381,38.3538048 C29.952381,37.9969758 29.6634475,37.7076096 29.3071522,37.7076096 L25.163923,37.7076096 L25.163923,7.20719603 Z M1.29045759,19.872622 L7.87179129,19.872622 L7.87179129,37.7076096 L1.29045759,37.7076096 L1.29045759,19.872622 Z" id="XMLID_1755_" fill="#2684FF"></path>
                <g id="Group-2" transform="translate(15.000000, 0.000000)">
                    <path d="M21.1576737,16.3349072 L21.1375247,16.0664109 C20.8137596,11.9744424 18.8511858,9.40925824 17.1198018,7.14665485 C15.516599,5.05152667 14.1319444,3.24225856 14.1319444,0.572677035 C14.1319444,0.358308776 14.0082899,0.162376187 13.8122092,0.0640883397 C13.6155212,-0.0347354278 13.3791976,-0.0185506243 13.2003954,0.107658688 C10.6001176,1.91414001 8.4305329,4.95886599 7.67265218,7.86398464 C7.14651326,9.88654917 7.0769024,12.1602997 7.06713148,13.662003 C4.66580499,13.1640255 4.12183553,9.67662905 4.11609443,9.63868587 C4.089045,9.45781265 3.97521661,9.30035916 3.80960788,9.21439749 C3.64228787,9.12956125 3.44559991,9.12339816 3.27596137,9.20491169 C3.15004354,9.26407733 0.185150553,10.726712 0.0126414659,16.5671216 C0.00055202908,16.7613928 0,16.9556641 0,17.1504712 C0,22.8239952 4.75490248,27.4401477 10.5989583,27.4401477 C16.4430142,27.4401477 21.1979167,22.8239952 21.1979167,17.1504712 C21.1979167,16.8657902 21.1778228,16.6000807 21.1576737,16.3349072 Z" id="Shape" fill="#2684FF" transform="translate(10.598958, 13.720074) scale(-1, 1) translate(-10.598958, -13.720074) "></path>
                    <path d="M10.5988652,26.2968682 C8.65064419,26.2968682 7.06587911,24.657862 7.06587911,22.643122 C7.06587911,22.5744705 7.06532708,22.5052296 7.07046095,22.4203933 C7.09403259,21.5707447 7.26024855,20.9907178 7.44252855,20.6049621 C7.78412415,21.3173079 8.39533074,21.9720957 9.38671977,21.9720957 C9.71219611,21.9720957 9.97556919,21.716408 9.97556919,21.4004292 C9.97556919,20.5864729 9.9928477,19.6475399 10.2015699,18.8000886 C10.3873277,18.0481383 10.8312143,17.2492414 11.3936215,16.6083875 C11.6437459,17.4401899 12.1314084,18.1134134 12.6075334,18.7705058 C13.2889581,19.7106178 13.9933472,20.6825099 14.1170017,22.3399516 C14.1244541,22.4381859 14.1319617,22.5370097 14.1319617,22.6430684 C14.1318513,24.657862 12.5470862,26.2968682 10.5988652,26.2968682 Z" id="Path" fill="#DEEBFF" transform="translate(10.598912, 21.452628) scale(-1, 1) translate(-10.598912, -21.452628) "></path>
                    <path d="M14.3199694,25.5499555 C14.931176,24.740769 15.309316,23.7405267 15.309316,22.643122 C15.309316,22.5086059 15.3007043,22.383522 15.2834258,22.1496462 C15.1437072,20.2834097 14.308156,19.1300549 13.5704244,18.1123952 C12.9419393,17.2459723 12.3996811,16.4973983 12.3996811,15.4355787 C12.3996811,15.2184237 12.273156,15.0202402 12.0730455,14.9236673 C11.8740942,14.8265049 11.6337407,14.8483169 11.4560426,14.9795103 C10.3267015,15.8079364 9.38477427,17.2024555 9.05587534,18.5338968 C8.8879481,19.2166597 8.82932261,19.9552119 8.80862152,20.5625708 C8.40034081,20.1360852 8.27381575,19.3456022 8.27271169,19.334991 C8.2462695,19.151331 8.13012258,18.9910907 7.96048404,18.9057185 C7.79200477,18.8208823 7.59018293,18.8186314 7.4205444,18.9034677 C7.27215898,18.9771568 5.96859751,19.7029005 5.89385278,22.3724284 C5.8886637,22.4628918 5.88811167,22.5533017 5.88811167,22.6431755 C5.88811167,23.7405803 6.26625159,24.7408226 6.87745819,25.5500091 C3.52862898,24.146165 1.17748193,20.9109192 1.17748193,17.1505784 C1.17748193,16.979191 1.1769299,16.8083931 1.18896413,16.6179805 C1.29015106,13.191411 2.41954736,11.4921138 3.15672699,10.7424144 C3.67077647,12.5287987 5.01750661,14.8639658 7.65460473,14.8639658 C7.98008107,14.8639658 8.24345415,14.608278 8.24345415,14.2922992 C8.24345415,12.3791697 8.28772688,10.168497 8.81447303,8.14427114 C9.41248613,5.8509595 11.0507428,3.37457737 13.0282766,1.69816399 C13.3566235,4.14667825 14.7303479,5.94201242 16.1742903,7.82829233 C17.8907696,10.0713346 19.6653222,12.3908528 19.9625899,16.146799 L19.982739,16.4203329 C20.0011215,16.6581745 20.0201113,16.8954266 20.0201113,17.1505248 C20.0199457,20.9108656 17.6687987,24.1461114 14.3199694,25.5499555 Z" id="Path" fill="#FFFFFF" transform="translate(10.598795, 13.624087) scale(-1, 1) translate(-10.598795, -13.624087) "></path>
                </g>
            </g>
        </g>
    </g>
</svg>