<?xml version="1.0" encoding="UTF-8"?>
<svg width="40px" height="40px" viewBox="0 0 40 40" version="1.1" xmlns="http://www.w3.org/2000/svg" xmlns:xlink="http://www.w3.org/1999/xlink">
    <!-- Generator: Sketch 55 (78076) - https://sketchapp.com -->
    <title>Professional Indemnity</title>
    <desc>Created with Sketch.</desc>
    <g id="Page-1" stroke="none" stroke-width="1" fill="none" fill-rule="evenodd">
        <g id="Artboard-Copy-5">
            <g id="Group-2" transform="translate(0.800000, 0.700000)">
                <g id="Group-12" transform="translate(10.484165, 0.000000)" fill="#2684FF" fill-rule="nonzero">
                    <path d="M28.4005662,7.29593752 L22.816609,0.23687504 C22.6990648,0.08718752 22.5224454,0.0003125 22.3358288,0 L1.86131907,0 C0.833412903,0 0,0.85968752 0,1.92 L0,13.84 L1.24087938,13.84 L1.24087938,1.92 C1.24087938,1.56656248 1.51868365,1.28 1.86131907,1.28 L21.7153891,1.28 L21.7153891,6.4 C21.7153891,7.46031248 22.548802,8.32 23.5767082,8.32 L27.2993463,8.32 L27.2993463,36.8671743 C27.2993463,37.2206118 27.021542,37.5071743 26.6789066,37.5071743 L1.86131907,37.5071743 C1.63956035,37.5074867 1.43446385,37.3852992 1.32328152,37.1871743 L0.249327102,37.8271743 C0.582874005,38.4199867 1.19664885,38.7856118 1.86131907,38.7871743 L26.6789066,38.7871743 C27.7068128,38.7871743 28.5402257,37.9274867 28.5402257,36.8671743 L28.5402257,7.69906248 C28.5399228,7.55218752 28.4905421,7.41 28.4005662,7.29593752 Z M22.9562685,6.4 L22.9562685,2.43843752 L26.5971103,7.04 L23.5767082,7.04 C23.2340728,7.04 22.9562685,6.75343752 22.9562685,6.4 Z" id="Shape"></path>
                    <polygon id="Path" points="19.2336304 27.88 24.1971479 27.88 24.1971479 29.16 19.2336304 29.16"></polygon>
                    <polygon id="Path" points="19.2336304 31.72 24.1971479 31.72 24.1971479 33 19.2336304 33"></polygon>
                    <polygon id="Path" points="3.90243902 6 17.5609756 6 17.5609756 7.28 3.90243902 7.28"></polygon>
                    <polygon id="Path" points="9.75609756 10 17.5609756 10 17.5609756 11.28 9.75609756 11.28"></polygon>
                </g>
                <g id="Group" transform="translate(0.000000, 13.800000)">
                    <path d="M2.15059786,3.33495652 L25.706883,3.33495652 C26.1903375,3.33495652 26.6539911,3.53184893 26.9958451,3.88231966 C27.3376991,4.23279039 27.5297507,4.70813071 27.5297507,5.20377117 L27.5297507,10.3662426 C27.5297507,11.3983604 26.713625,12.2350572 25.706883,12.2350572 C23.4755195,12.2350572 22.6819029,12.2350572 23.3260332,12.2350572" id="Shape" stroke="#2684FF" stroke-width="1.30238069" stroke-linecap="round"></path>
                    <path d="M3.90798505e-13,3.33495652 L23.5562851,3.33495652 C24.0397397,3.33495652 24.5033932,3.53184893 24.8452472,3.88231966 C25.1871012,4.23279039 25.3791528,4.70813071 25.3791528,5.20377117 L25.3791528,10.3662426 C25.3791528,11.3983604 24.5630272,12.2350572 23.5562851,12.2350572 C22.1771636,12.2350572 21.4444305,12.2350572 21.3580857,12.2350572" id="Shape" stroke="#2684FF" stroke-width="1.30238069" stroke-linecap="round" transform="translate(12.689576, 7.785007) scale(-1, 1) translate(-12.689576, -7.785007) "></path>
                    <path d="M16.8264486,12.2144073 L10.6693666,12.2350572" id="Shape" stroke="#2684FF" stroke-width="1.30238069" stroke-linecap="round"></path>
                    <path d="M9.04929615,2.53993593 C9.00880177,2.38504693 8.98848313,2.22534424 8.98886959,2.06498856 L8.98886959,1.74491533 C8.98886959,0.781225204 9.75088749,-4.4408921e-14 10.6908842,-4.4408921e-14 L17.1766677,-4.4408921e-14 C18.1166644,-4.25748427e-14 18.8786823,0.781225204 18.8786823,1.74491533 L18.8786823,2.06498856 C18.8756712,2.22579497 18.8519673,2.38549026 18.8081847,2.53993593" id="Shape" stroke="#2684FF" stroke-width="1.30238069" stroke-linecap="round" fill-rule="nonzero"></path>
                    <path d="M26.6032102,17.3772255 L26.6032102,21.7959542 C26.597664,23.1946883 25.4900773,24.3255768 24.1257215,24.3255652 L3.73175936,24.3255652 C3.07214039,24.3338464 2.43675325,24.0709949 1.96746744,23.5957003 C1.49818164,23.1204056 1.23407899,22.4722502 1.23412845,21.7959542 L1.23412845,17.3772255 C4.29042524,18.4061347 8.54266425,18.9205893 13.9908455,18.9205893 C19.4390267,18.9205893 23.6431483,18.4061347 26.6032102,17.3772255 Z" id="Shape" fill="#DEEBFF"></path>
                    <path d="M26.4924282,12.2144073 C26.5651555,12.4445576 26.6025294,12.684903 26.6032102,12.9268284 L26.6032102,21.7959542 C26.597664,23.1946883 25.4900773,24.3255768 24.1257215,24.3255652 L3.73175936,24.3255652 C3.07214039,24.3338464 2.43675325,24.0709949 1.96746744,23.5957003 C1.49818164,23.1204056 1.23407899,22.4722502 1.23412845,21.7959542 L1.23412845,12.9268284 C1.23155191,12.6854436 1.26552641,12.4451107 1.33483937,12.2144073" id="Shape" stroke="#2684FF" stroke-width="1.30238069" stroke-linecap="round"></path>
                    <path d="M6.64203921,9.99454462 L8.78729397,9.99454462 C9.0263179,9.99454462 9.22008509,10.1883118 9.22008509,10.4273357 L9.22008509,14.0014789 C9.22008509,14.2405028 9.0263179,14.43427 8.78729397,14.43427 L6.64203921,14.43427 C6.40301527,14.43427 6.20924809,14.2405028 6.20924809,14.0014789 L6.20924809,10.4273357 C6.20924809,10.1883118 6.40301527,9.99454462 6.64203921,9.99454462 Z" id="Rectangle-path" stroke="#2684FF" stroke-width="1.30238069" fill="#DEEBFF" fill-rule="nonzero"></path>
                    <path d="M19.1834866,9.99454462 L21.3287414,9.99454462 C21.5677653,9.99454462 21.7615325,10.1883118 21.7615325,10.4273357 L21.7615325,14.0014789 C21.7615325,14.2405028 21.5677653,14.43427 21.3287414,14.43427 L19.1834866,14.43427 C18.9444627,14.43427 18.7506955,14.2405028 18.7506955,14.0014789 L18.7506955,10.4273357 C18.7506955,10.1883118 18.9444627,9.99454462 19.1834866,9.99454462 Z" id="Rectangle-path" stroke="#2684FF" stroke-width="1.30238069" fill="#DEEBFF" fill-rule="nonzero"></path>
                </g>
            </g>
        </g>
    </g>
</svg>