<?xml version="1.0" encoding="UTF-8"?>
<svg width="40px" height="40px" viewBox="0 0 40 40" version="1.1" xmlns="http://www.w3.org/2000/svg" xmlns:xlink="http://www.w3.org/1999/xlink">
    <!-- Generator: Sketch 55 (78076) - https://sketchapp.com -->
    <title>Shop Owner’s</title>
    <desc>Created with Sketch.</desc>
    <g id="Page-1" stroke="none" stroke-width="1" fill="none" fill-rule="evenodd">
        <g id="Artboard-Copy-12" fill-rule="nonzero">
            <g id="Group-3" transform="translate(0.500000, 3.000000)">
                <g id="Group" transform="translate(0.000000, 11.407662)">
                    <g id="Group-4">
                        <path d="M26.3706328,7.49442847 C26.3706328,7.38201204 26.343691,7.27494878 26.2844191,7.17859184 L22.3616932,0.326542955 C22.2485376,0.128475917 22.0330032,-8.70414851e-14 21.8013037,-8.70414851e-14 L4.56394075,-8.70414851e-14 C4.33224128,-8.70414851e-14 4.11670688,0.123122753 4.00355133,0.326542955 L0.0862137567,7.17859184 C0.0323301588,7.27494878 2.39808173e-13,7.38201204 2.39808173e-13,7.49442847 C2.39808173e-13,9.0307863 0.932186245,10.3476645 2.26311111,10.9311592 L2.26311111,22.2316867 C2.26311111,22.5849955 2.55408254,22.8740663 2.90971429,22.8740663 L6.48219683,22.8740663 C6.48758519,22.8740663 6.49297355,22.8740663 6.49836191,22.8740663 L11.5095365,22.8740663 C11.5149249,22.8740663 11.5203132,22.8740663 11.5257016,22.8740663 L23.4555302,22.8740663 C23.8111619,22.8740663 24.1021334,22.5849955 24.1021334,22.2316867 L24.1021334,11.0114567 C24.1021334,10.9846909 24.1021334,10.9632782 24.096745,10.9418656 C25.4330582,10.3583708 26.3706328,9.03613947 26.3706328,7.49442847 Z M4.94112593,1.29011233 L21.4241185,1.29011233 L24.4900953,6.64862868 L1.88053757,6.64862868 L4.94112593,1.29011233 Z M18.7676572,7.92803469 C18.5628995,9.08431794 17.5444995,9.9622367 16.3213418,9.9622367 C15.0981841,9.9622367 14.0797841,9.08431794 13.8750265,7.92803469 L18.7676572,7.92803469 Z M1.33631323,7.92803469 L6.23433228,7.92803469 C6.02957461,9.08431794 5.00578625,9.9622367 3.78262858,9.9622367 C2.5594709,9.96758986 1.5410709,9.08431794 1.33631323,7.92803469 Z M3.55631747,21.5946603 L3.55631747,11.2469959 C3.6317545,11.252349 3.70719154,11.252349 3.78262858,11.252349 C5.08661165,11.252349 6.23972064,10.59391 6.91865398,9.59286844 C7.59758731,10.59391 8.75069631,11.252349 10.0546794,11.252349 C11.3586624,11.252349 12.5063831,10.59391 13.1907048,9.59286844 C13.8696381,10.59391 15.0227471,11.252349 16.3213418,11.252349 C17.6253249,11.252349 18.7730455,10.59391 19.4519789,9.59286844 C20.1309122,10.59391 21.2840212,11.252349 22.5880043,11.252349 C22.6634413,11.252349 22.73349,11.2469959 22.808927,11.2469959 L22.808927,21.5893072 L3.55631747,21.5946603 Z" id="Shape" fill="#2684FF"></path>
                        <path d="M3.55631747,21.5946603 L3.55631747,15.9747736 C3.6317545,15.9801268 3.70719154,15.9801268 3.78262858,15.9801268 C5.08661165,15.9801268 6.23972064,15.3216877 6.91865398,14.3206462 C7.59758731,15.3216877 8.75069631,15.9801268 10.0546794,15.9801268 C11.3586624,15.9801268 12.5063831,15.3216877 13.1907048,14.3206462 C13.8696381,15.3216877 15.0227471,15.9801268 16.3213418,15.9801268 C17.6253249,15.9801268 18.7730455,15.3216877 19.4519789,14.3206462 C20.1309122,15.3216877 21.2840212,15.9801268 22.5880043,15.9801268 C22.6634413,15.9801268 22.73349,15.9747736 22.808927,15.9747736 L22.808927,21.5893072 L3.55631747,21.5946603 Z" id="Path" fill="#DEEBFF"></path>
                    </g>
                    <path d="M12.4269943,7.61742901 C12.2070694,8.87425863 11.1132324,9.82851815 9.79947044,9.82851815 C8.4857085,9.82851815 7.39187146,8.87425863 7.16615905,7.61742901 L12.4269943,7.61742901 Z" id="Path" fill="#DEEBFF"></path>
                    <path d="M23.2611898,9.83433681 C21.9474278,9.83433681 20.8535908,8.88007728 20.6336659,7.62324766 L25.8945012,7.62324766 C25.6687887,8.87425863 24.5749517,9.83433681 23.2611898,9.83433681 Z" id="Path" fill="#DEEBFF"></path>
                </g>
                <g id="Group-2" transform="translate(28.000000, 14.500000) scale(-1, 1) translate(-28.000000, -14.500000) translate(17.000000, 0.000000)">
                    <path d="M21.7947736,16.8803314 L21.7740178,16.60287 C21.4405035,12.3742703 19.4188327,9.72343433 17.6353133,7.38528238 C15.9838348,5.22019766 14.5574855,3.3505179 14.5574855,0.591798779 C14.5574855,0.370272742 14.4301075,0.167797944 14.2281224,0.0662282559 C14.0255118,-0.0358952473 13.782072,-0.0191700315 13.5978856,0.111253423 C10.9193083,1.97805334 8.68439309,5.12444303 7.90369107,8.12656389 C7.36170906,10.216662 7.29000207,12.5663333 7.27993693,14.1181786 C4.8063017,13.6035736 4.24595223,9.99973268 4.24003825,9.96052257 C4.21217432,9.77360997 4.09491832,9.6108991 3.92432279,9.52206716 C3.75196443,9.43439823 3.5493538,9.42802936 3.37460711,9.51226463 C3.24489764,9.57340582 0.190725806,11.084878 0.0130221257,17.1202995 C0.000568651778,17.3210574 0,17.5218154 0,17.7231272 C0,23.5860907 4.89808209,28.356377 10.9181141,28.356377 C16.9381462,28.356377 21.8362283,23.5860907 21.8362283,17.7231272 C21.8362283,17.4289406 21.8155294,17.1543591 21.7947736,16.8803314 Z" id="Shape" fill="#2684FF"></path>
                    <path d="M10.9181141,27.1749233 C8.91122829,27.1749233 7.27874276,25.4811906 7.27874276,23.3991781 C7.27874276,23.3282344 7.27817411,23.2566815 7.28346257,23.1690125 C7.307744,22.2909941 7.47896505,21.6916 7.66673387,21.2929639 C8.01861559,22.0290949 8.64822684,22.7057462 9.66946857,22.7057462 C10.0047457,22.7057462 10.2760494,22.441521 10.2760494,22.1149917 C10.2760494,21.2738573 10.2938482,20.3035733 10.5088555,19.4278254 C10.7002068,18.6507675 11.1574597,17.8251953 11.7368021,17.1629432 C11.9944582,18.0225196 12.4968052,18.7182222 12.9872674,19.3972549 C13.6892111,20.3687573 14.4148108,21.373101 14.5421888,23.0858849 C14.5498656,23.1873992 14.5575993,23.2895227 14.5575993,23.3991227 C14.5574855,25.4811906 12.925,27.1749233 10.9181141,27.1749233 Z" id="Path" fill="#DEEBFF"></path>
                    <path d="M14.7515095,26.4030712 C15.3811208,25.5668658 15.7706472,24.5332253 15.7706472,23.3991781 C15.7706472,23.2601705 15.7617763,23.1309101 15.7439775,22.8892252 C15.6000517,20.9606749 14.7393404,19.7688094 13.9793941,18.7171699 C13.3319841,17.8218171 12.7733974,17.0482481 12.7733974,15.9509743 C12.7733974,15.7265684 12.6430624,15.5217676 12.4369262,15.4219701 C12.2319841,15.3215634 11.9843931,15.3441037 11.8013441,15.4796776 C10.6379963,16.335765 9.66770575,17.7768473 9.32890302,19.1527455 C9.15591915,19.8583059 9.09552833,20.6215185 9.07420389,21.2491571 C8.65362903,20.8084311 8.52329404,19.9915538 8.52215674,19.9805883 C8.49491832,19.7907959 8.37527399,19.6252051 8.2005273,19.5369824 C8.02697477,19.4493135 7.81907568,19.4469874 7.64432899,19.5346564 C7.49147539,19.610806 6.14866108,20.3607823 6.07166563,23.1194461 C6.06632031,23.2129301 6.06575165,23.3063587 6.06575165,23.3992335 C6.06575165,24.5332806 6.45527812,25.5669211 7.08488937,26.4031265 C3.63522022,24.9524079 1.21327543,21.609137 1.21327543,17.723238 C1.21327543,17.5461279 1.21270678,17.369627 1.22510339,17.1728565 C1.32933726,13.6318736 2.49274194,11.8758367 3.25211952,11.1011048 C3.78164806,12.9471366 5.16893093,15.3602751 7.88543734,15.3602751 C8.22071443,15.3602751 8.4920182,15.0960499 8.4920182,14.7695205 C8.4920182,12.7925114 8.53762407,10.5080242 9.0802316,8.41620918 C9.69625207,6.04632363 11.38384,3.48725485 13.4209212,1.75486586 C13.7591553,4.28513626 15.1742452,6.14041682 16.6616677,8.0896798 C18.4298335,10.4076175 20.2578215,12.8045846 20.5640405,16.6859423 L20.5847963,16.9686095 C20.6037324,17.2143927 20.623294,17.4595666 20.623294,17.7231826 C20.6231234,21.6090816 18.2011787,24.9523525 14.7515095,26.4030712 Z" id="Path" fill="#FFFFFF"></path>
                </g>
            </g>
        </g>
    </g>
</svg>