<?xml version="1.0" encoding="UTF-8"?>
<svg width="40px" height="40px" viewBox="0 0 40 40" version="1.1" xmlns="http://www.w3.org/2000/svg" xmlns:xlink="http://www.w3.org/1999/xlink">
    <!-- Generator: Sketch 55 (78076) - https://sketchapp.com -->
    <title>Workman Compensation</title>
    <desc>Created with Sketch.</desc>
    <g id="Page-1" stroke="none" stroke-width="1" fill="none" fill-rule="evenodd">
        <g id="Artboard-Copy-2">
            <g id="Group" transform="translate(8.000000, 3.000000)">
                <path d="M3.27398137,33.3377003 L18.8899942,33.3377003 L18.8899942,17.3317541 L20.6228357,17.3317541 L20.6228357,32.2603474 C20.6228357,33.032852 21.0819536,33.3887971 21.9325359,33.3887971 C22.8038928,33.3887971 23.3599928,33.0188175 23.3599928,32.4058529 C23.3599928,32.0057294 23.3599928,32.0057294 23.3599928,31.0910327 C23.3599928,29.9190494 23.3599928,29.9190494 23.3599928,28.2324928 C23.3599928,24.0875199 23.3599928,24.0875199 23.3605633,17.8591518 C23.4165182,16.6288624 23.1157198,15.7524989 22.4758126,15.182081 C22.139304,14.8821147 21.8800475,14.7089431 21.6311933,14.6081804 C21.3526072,14.4953791 21.0943797,14.4596537 20.4177623,14.4268449 C19.7468721,14.3943138 19.6497521,14.3889389 19.2954016,14.3596887 C18.0772395,14.2591345 13.7706529,14.2591345 6.40836715,14.3613937 C3.87576268,14.2989565 2.28057023,14.6873133 1.62768531,15.4399093 C0.925696442,16.2491086 0.566743151,17.2711045 0.5525,18.5238896 C0.5525,22.963941 0.5525,22.963941 0.551568201,27.9209988 C0.567848165,28.2009572 0.59383485,28.2347245 0.679520772,28.240053 C1.05815915,28.2635994 1.7376528,28.2635994 2.70756595,28.2391631 L3.27398137,28.2248927 L3.27398137,33.3377003 Z" id="Rectangle" stroke="#2684FF" stroke-width="1.105"></path>
                <path d="M7.64570819,7.62609139 C7.52026849,8.06089374 7.45307324,8.52024031 7.45307324,8.99521693 C7.45307324,11.728131 9.67764294,13.9435955 12.4217887,13.9435955 L12.4217887,13.9435955 C15.1659345,13.9435955 17.3905042,11.728131 17.3905042,8.99521693 C17.3905042,8.51853707 17.3228262,8.05759956 17.1965176,7.6214148" id="Path" stroke="#2684FF" stroke-width="1.105" stroke-linecap="round" stroke-linejoin="round"></path>
                <path d="M5.60770872,7.66122371 L19.2569096,7.66122371 C19.5317657,6.42282856 19.1316545,5.80363098 18.0565758,5.80363098 C18.0491881,3.34891307 16.8384443,1.75033656 14.4243445,1.00790145 L13.4275127,4.04683834 L13.4275127,0.302337263 C13.1278424,0.100779088 12.7926011,1.17239551e-13 12.4217887,1.17239551e-13 C12.0509764,1.17239551e-13 11.7094859,0.100779088 11.3973172,0.302337263 L11.3973172,3.97652284 L10.4445554,1.00790145 C8.04976429,2.0773305 6.85236876,3.67590702 6.85236876,5.80363098 C5.77980862,6.16598614 5.36492194,6.78518372 5.60770872,7.66122371 Z" id="Path-11" fill="#DEEBFF"></path>
                <path d="M6.31179426,5.42225191 C6.44948857,3.24895461 7.77806299,1.59357556 10.219271,0.503418326 L10.7822193,0.252025537 L10.8448172,0.447068531 L10.8448172,0.00141178665 L11.0976252,-0.161818909 C11.4990612,-0.421014382 11.944601,-0.5525 12.4217887,-0.5525 C12.9016851,-0.5525 13.3443946,-0.419414226 13.7358651,-0.156111298 L13.9800127,0.00810233166 L13.9800127,0.58983927 L14.0683959,0.320394658 L14.586754,0.479811117 C17.0629537,1.2413445 18.4226637,2.87818911 18.5912421,5.30115344 C19.6640487,5.51808295 20.0965971,6.42784364 19.7962846,7.78093551 L19.7002292,8.21372371 L5.18750372,8.21372371 L5.07527776,7.80878227 C4.77840405,6.73758208 5.23896407,5.90436578 6.31179426,5.42225191 Z" id="Path-11" stroke="#2684FF" stroke-width="1.105" stroke-linecap="round" stroke-linejoin="round"></path>
                <path d="M7.15113112,14.2832657 L10.2462621,24.5932759 L13.4636118,24.8217699 C14.6834048,24.975854 15.2933013,25.5337682 15.2933013,26.4955125 C15.2933013,27.4572568 14.7825177,28.0324952 13.7609506,28.2212279 L11.3212498,28.2212279 L3.21119585,28.2212279 L3.21119585,14.5545484 C4.44114275,14.2973834 5.75445451,14.2069558 7.15113112,14.2832657 Z" id="Path-17" stroke="#2684FF" stroke-width="1.105" fill="#FFFFFF" stroke-linecap="round" stroke-linejoin="round"></path>
                <path d="M7.15113112,14.2832657 L12.5454545,28.2212279 L3.21119585,28.2212279 L3.21119585,14.5545484 C4.44114275,14.2973834 5.75445451,14.2069558 7.15113112,14.2832657 Z" id="Path-17" stroke="#2684FF" stroke-width="1.105" fill="#DEEBFF" stroke-linecap="round" stroke-linejoin="round"></path>
            </g>
        </g>
    </g>
</svg>