<?xml version="1.0" encoding="UTF-8"?>
<svg width="13px" height="8px" viewBox="0 0 13 8" version="1.1" xmlns="http://www.w3.org/2000/svg" xmlns:xlink="http://www.w3.org/1999/xlink">
    <!-- Generator: Sketch 54.1 (76490) - https://sketchapp.com -->
    <title>ion-ios-arrow-thin-right - Ionicons 2</title>
    <desc>Created with Sketch.</desc>
    <g id="Page-1" stroke="none" stroke-width="1" fill="none" fill-rule="evenodd">
        <g id="Health-Quotes-Copy" transform="translate(-852.000000, -242.000000)" fill="#FFFFFF" stroke="#FFFFFF" stroke-width="0.864000015">
            <g id="Group-4" transform="translate(135.000000, 208.000000)">
                <g id="Group-3">
                    <g id="Group-8" transform="translate(601.000000, 17.000000)">
                        <g id="Group-11" transform="translate(16.000000, 12.000000)">
                            <g id="ion-ios-arrow-thin-right---Ionicons-2" transform="translate(100.050002, 5.400000)">
                                <path d="M8.58093765,6.72180289 C8.42906189,6.58103145 8.42906189,6.44026213 8.58093765,6.2994907 L11.1248439,3.69523219 L0.303750005,3.69523219 C0.101248989,3.69523219 8.8817842e-16,3.60138598 8.8817842e-16,3.41369073 C8.8817842e-16,3.22599549 0.101248989,3.13214927 0.303750005,3.13214927 L11.1248439,3.13214927 L8.58093765,0.527890766 C8.42906189,0.387119332 8.42906189,0.246350009 8.58093765,0.105578575 C8.73281341,-0.0351928585 8.8846869,-0.0351928585 9.03656266,0.105578575 C11.0362602,2.14676437 12.0487501,3.17907273 12.0740627,3.20253464 C12.124688,3.24945845 12.1500002,3.31984311 12.1500002,3.41369073 C12.1500002,3.50753835 12.124688,3.57792302 12.0740627,3.62484683 L9.03656266,6.72180289 C8.98593741,6.7687267 8.91000066,6.79218825 8.80875016,6.79218825 C8.70749965,6.79218825 8.63156291,6.7687267 8.58093765,6.72180289 Z" id="ion-ios-arrow-thin-right---Ionicons"></path>
                            </g>
                        </g>
                    </g>
                </g>
            </g>
        </g>
    </g>
</svg>