<?xml version="1.0" encoding="UTF-8"?>
<svg width="15px" height="15px" viewBox="0 0 15 15" version="1.1" xmlns="http://www.w3.org/2000/svg" xmlns:xlink="http://www.w3.org/1999/xlink">
    <!-- Generator: Sketch 54.1 (76490) - https://sketchapp.com -->
    <title>Chat</title>
    <desc>Created with Sketch.</desc>
    <g id="Page-1" stroke="none" stroke-width="1" fill="none" fill-rule="evenodd">
        <g id="Health-Quotes-Laptop" transform="translate(-965.000000, -686.000000)" fill="#FFFFFF" fill-rule="nonzero">
            <g id="Group-9" transform="translate(930.000000, 475.000000)">
                <g id="Group-13" transform="translate(35.000000, 211.000000)">
                    <g id="Chat">
                        <path d="M0.901442308,12.3677885 L0.865384616,12.3317308 L0.865384616,12.2596154 C0.288458653,11.418265 0,10.4927935 0,9.48317308 C0,7.94470384 0.588936418,6.67067812 1.76682692,5.66105769 C1.6706726,6.18990649 1.62259615,6.59855625 1.62259615,6.88701922 C1.62259615,8.54568137 2.23557079,9.96994597 3.46153847,11.1598558 C4.68750613,12.3497656 6.16585672,12.9447115 7.89663461,12.9447115 C8.44952199,12.9447115 8.97836286,12.8725969 9.48317308,12.7283654 C8.40143691,14.0024102 7.01923918,14.6394231 5.33653847,14.6394231 C4.68749676,14.6394231 3.99038835,14.4951938 3.24519231,14.2067308 L3.20913461,14.2067308 C3.11298028,14.1586536 3.01682741,14.1346154 2.92067308,14.1346154 C2.84855734,14.1346154 2.74038534,14.1586536 2.59615384,14.2067308 L0.576923077,15 L1.00961538,12.7283654 C1.00961538,12.6081725 0.973558054,12.4879814 0.901442308,12.3677885 Z M8.72596153,0 C10.4567394,0 11.93509,0.594945973 13.1610577,1.78485577 C14.3870254,2.97476556 15,4.39903016 15,6.05769231 C15,7.18750566 14.6634649,8.26922559 13.9903846,9.30288461 L13.9543269,9.33894231 C13.9302884,9.36298089 13.9182692,9.38701911 13.9182692,9.41105769 C13.8461535,9.55528918 13.8100962,9.69951851 13.8100962,9.84375 L14.4230769,12.5120192 L11.9350962,11.5745192 C11.7908647,11.5264421 11.6706736,11.5024038 11.5745192,11.5024038 C11.5024035,11.5024038 11.3942315,11.5264421 11.25,11.5745192 L11.1778846,11.6105769 C10.985576,11.6826927 10.6971173,11.7668264 10.3125,11.8629808 C9.80768978,12.0072123 9.27884891,12.0793269 8.72596153,12.0793269 C6.99518366,12.0793269 5.52284261,11.4903905 4.30889423,10.3125 C3.09494586,9.13460949 2.48798078,7.71635445 2.48798078,6.05769231 C2.48798078,5.62499784 2.52403809,5.20432897 2.59615384,4.79567308 C2.88461683,3.42547391 3.60576347,2.28365841 4.75961539,1.37019231 C5.91346731,0.456726202 7.23556946,0 8.72596153,0 Z" id="ion-chatbubbles---Ionicons"></path>
                    </g>
                </g>
            </g>
        </g>
    </g>
</svg>