<svg xmlns="http://www.w3.org/2000/svg" width="26.373" height="20.086" viewBox="0 0 26.373 20.086">
    <defs>
        <style>
            .cls-1,.cls-2{fill:#fff}.cls-3,.cls-4{stroke:none}.cls-4{fill:#00c5a7}
        </style>
    </defs>
    <g id="icon_1" data-name="icon 1" transform="translate(1.2)">
        <path id="Path_7457" d="M1.951 6.13h9.236a1.951 1.951 0 0 1 1.951 1.954v5.14a1.951 1.951 0 0 1-1.951 1.955h-.677v1.708c0 .811-.487 1.023-1.083.473l-2.356-2.182H1.947A1.951 1.951 0 0 1 0 13.223V8.084A1.951 1.951 0 0 1 1.951 6.13z" class="cls-1" data-name="Path 7457" transform="translate(12.035 -6.13)"/>
        <g id="Path_1" class="cls-2" data-name="Path 1">
            <path d="M4.15 22.145c-.572 0-1.239-.43-1.239-1.641V18.82h-.304a3.186 3.186 0 0 1-2.27-.941A3.186 3.186 0 0 1-.6 15.608V8.74a3.185 3.185 0 0 1 .938-2.27 3.186 3.186 0 0 1 2.27-.941h12.341c.858 0 1.664.334 2.27.94.606.608.939 1.414.938 2.271v6.868a3.185 3.185 0 0 1-.935 2.268 3.186 3.186 0 0 1-2.266.944H8.343l-2.978 2.755c-.407.377-.817.569-1.216.569z" class="cls-3" transform="translate(0 -2.659)"/>
            <path d="M2.607 6.13A2.607 2.607 0 0 0 0 8.74v6.869a2.607 2.607 0 0 0 2.607 2.612h.904v2.283c0 .676.254 1.04.638 1.04.231 0 .51-.132.809-.408l3.15-2.915h6.847a2.607 2.607 0 0 0 2.602-2.612V8.74a2.607 2.607 0 0 0-2.608-2.611H2.607m0-1.2H14.95c1.018 0 1.975.397 2.694 1.117a3.782 3.782 0 0 1 1.114 2.695v6.867a3.78 3.78 0 0 1-1.11 2.692 3.782 3.782 0 0 1-2.69 1.12h-6.38l-2.804 2.595c-.522.484-1.069.729-1.624.729-.915 0-1.838-.693-1.838-2.241V19.41a3.779 3.779 0 0 1-2.399-1.107A3.782 3.782 0 0 1-1.2 15.606V8.741A3.781 3.781 0 0 1-.087 6.047 3.782 3.782 0 0 1 2.607 4.93z" class="cls-4" transform="translate(0 -2.659)"/>
        </g>
    </g>
</svg>
