<?xml version="1.0" encoding="UTF-8"?>
<svg width="14px" height="14px" viewBox="0 0 14 14" version="1.1" xmlns="http://www.w3.org/2000/svg" xmlns:xlink="http://www.w3.org/1999/xlink">
    <!-- Generator: Sketch 54.1 (76490) - https://sketchapp.com -->
    <title>noun_Trophy_216641</title>
    <desc>Created with Sketch.</desc>
    <g id="Page-1" stroke="none" stroke-width="1" fill="none" fill-rule="evenodd">
        <g id="Health-Quotes-Copy" transform="translate(-346.000000, -284.000000)" fill-rule="nonzero">
            <g id="Group-4" transform="translate(135.000000, 208.000000)">
                <g id="Group-3">
                    <g id="noun_Trophy_216641" transform="translate(218.000000, 83.000000) scale(-1, 1) translate(-218.000000, -83.000000) translate(211.000000, 76.000000)">
                        <path d="M12.0684666,0 L1.94710471,0 C1.72910615,0 1.55782156,0.171111111 1.55782156,0.388888889 C1.55782156,1.22888889 1.62010687,2.03777778 1.72910615,2.8 C1.339823,2.90888889 0.966111176,3.11111111 0.670255982,3.42222222 C0.234258854,3.87333333 -0.0148823619,4.46444444 0.000688964112,5.10222222 C0.0162602901,6.36222222 1.10625311,7.38888889 2.39867317,7.38888889 L2.72567101,7.38888889 C2.94366958,7.38888889 3.11495416,7.56 3.11495416,7.77777778 C3.11495416,7.99555556 2.94366958,8.16666667 2.72567101,8.16666667 C2.50767245,8.16666667 2.33638786,8.33777778 2.33638786,8.55555556 C2.33638786,8.77333333 2.50767245,8.94444444 2.72567101,8.94444444 C3.19281079,8.94444444 3.59766527,8.66444444 3.78452118,8.27555556 C4.3918029,9.05333333 5.07694124,9.61333333 5.83993621,9.89333333 L5.83993621,11.6666667 L5.24822583,11.6666667 C5.10808389,11.6666667 4.98351328,11.7288889 4.92122798,11.8533333 L3.94023444,13.4088889 C3.86237781,13.5333333 3.86237781,13.6733333 3.92466312,13.7977778 C3.98694842,13.9222222 4.12709035,14 4.26723229,14 L9.71719639,14 C9.85733832,14 9.98190893,13.9377778 10.0441942,13.8133333 C10.1220509,13.7044444 10.1220509,13.5488889 10.0597656,13.44 L9.28119926,11.8844444 C9.21891395,11.76 9.07877202,11.6666667 8.93863009,11.6666667 L8.16006379,11.6666667 L8.16006379,9.89333333 C8.92305876,9.61333333 9.62376843,9.05333333 10.2154788,8.27555556 C10.4023347,8.66444444 10.8071892,8.94444444 11.274329,8.94444444 C11.4923276,8.94444444 11.6636121,8.77333333 11.6636121,8.55555556 C11.6636121,8.33777778 11.4923276,8.16666667 11.274329,8.16666667 C11.0563304,8.16666667 10.8850458,7.99555556 10.8850458,7.77777778 C10.8850458,7.56 11.0563304,7.38888889 11.274329,7.38888889 L11.6013268,7.38888889 C12.8937469,7.38888889 13.9837397,6.36222222 13.999311,5.10222222 C14.0148824,4.46444444 13.7657411,3.87333333 13.329744,3.42222222 C13.0338888,3.12666667 12.6757483,2.90888889 12.2708939,2.8 C12.3798931,2.02222222 12.4421784,1.22888889 12.4421784,0.388888889 C12.4577498,0.171111111 12.2864652,0 12.0684666,0 Z M2.72567101,6.61111111 L2.39867317,6.61111111 C1.52667891,6.61111111 0.79482659,5.92666667 0.779255264,5.08666667 C0.779255264,4.66666667 0.934968524,4.26222222 1.23082372,3.96666667 C1.4021083,3.78 1.62010687,3.65555556 1.85367676,3.57777778 C2.07167532,4.69777778 2.38310184,5.72444444 2.80352764,6.61111111 C2.77238499,6.61111111 2.74124234,6.61111111 2.72567101,6.61111111 Z M6.61850251,11.6666667 L6.61850251,10.08 C6.74307312,10.0955556 6.88321506,10.1111111 7.00778566,10.1111111 C7.13235627,10.1111111 7.2724982,10.0955556 7.39706881,10.08 L7.39706881,11.6666667 L6.61850251,11.6666667 Z M12.7847476,3.96666667 C13.0806028,4.26222222 13.2363161,4.66666667 13.2363161,5.08666667 C13.2207447,5.92666667 12.4888924,6.61111111 11.6168982,6.61111111 L11.2899003,6.61111111 C11.274329,6.61111111 11.2431863,6.61111111 11.227615,6.61111111 C11.6324695,5.72444444 11.9594673,4.69777778 12.1774659,3.57777778 C12.3954645,3.65555556 12.613463,3.78 12.7847476,3.96666667 Z" id="Shape" fill="#F5A623"></path>
                        <path d="M9.97528133,3.26168224 C9.92147855,3.09345794 9.77800447,2.96261682 9.61659613,2.94392523 L8.07424979,2.71962617 L7.39274792,1.26168224 C7.32101088,1.09345794 7.17753681,1 6.99819421,1 C6.81885161,1 6.67537753,1.09345794 6.60364049,1.26168224 L5.92213862,2.71962617 L4.37979229,2.94392523 C4.21838395,2.96261682 4.07490987,3.09345794 4.02110709,3.26168224 C3.96730431,3.42990654 4.02110709,3.61682243 4.12871265,3.74766355 L5.24063675,4.86915888 L4.97162286,6.45794393 C4.93575434,6.62616822 5.00749138,6.81308411 5.15096546,6.90654206 C5.29443953,7.01869159 5.47378213,7.01869159 5.61725621,6.94392523 L6.99819421,6.19626168 L8.37913221,6.94392523 C8.45086925,6.98130841 8.52260629,7 8.59434333,7 C8.68401463,7 8.77368592,6.96261682 8.86335722,6.90654206 C9.0068313,6.79439252 9.07856834,6.62616822 9.04269982,6.45794393 L8.77368592,4.86915888 L9.88561003,3.74766355 C9.99321559,3.61682243 10.0290841,3.42990654 9.97528133,3.26168224 Z M7.96664424,4.36448598 C7.85903868,4.47663551 7.8052359,4.62616822 7.84110442,4.77570093 L7.9845785,5.6728972 L7.21340533,5.24299065 C7.14166829,5.20560748 7.06993125,5.18691589 6.99819421,5.18691589 C6.92645717,5.18691589 6.85472013,5.20560748 6.78298309,5.24299065 L6.01180992,5.6728972 L6.155284,4.77570093 C6.17321826,4.62616822 6.13734974,4.47663551 6.02974418,4.36448598 L5.40204509,3.72897196 L6.26288956,3.59813084 C6.40636364,3.57943925 6.53190346,3.48598131 6.60364049,3.3364486 L6.99819421,2.51401869 L7.39274792,3.3364486 C7.46448496,3.46728972 7.59002478,3.56074766 7.73349886,3.59813084 L8.59434333,3.72897196 L7.96664424,4.36448598 Z" id="Shape" fill="#FFFFFF"></path>
                    </g>
                </g>
            </g>
        </g>
    </g>
</svg>