<?xml version="1.0" encoding="UTF-8"?>
<svg width="13px" height="14px" viewBox="0 0 13 14" version="1.1" xmlns="http://www.w3.org/2000/svg" xmlns:xlink="http://www.w3.org/1999/xlink">
    <!-- Generator: Sketch 54.1 (76490) - https://sketchapp.com -->
    <title>Group 37</title>
    <desc>Created with Sketch.</desc>
    <g id="Page-1" stroke="none" stroke-width="1" fill="none" fill-rule="evenodd">
        <g id="Health-Quotes-Copy" transform="translate(-253.000000, -284.000000)" stroke="#36C2A9">
            <g id="Group-4" transform="translate(135.000000, 208.000000)">
                <g id="Group-3">
                    <g id="Group-6" transform="translate(52.000000, 75.000000)">
                        <g id="Group-37" transform="translate(67.000000, 2.000000)">
                            <path d="M7.63636364,0.545454545 L9.81818182,0.545454545 C10.4206743,0.545454545 10.9090909,1.03387118 10.9090909,1.63636364 L10.9090909,10.3636364 C10.9090909,10.9661288 10.4206743,11.4545455 9.81818182,11.4545455 L1.09090909,11.4545455 C0.488416637,11.4545455 0,10.9661288 0,10.3636364 L0,8.18181818" id="Rectangle" stroke-width="1.2" stroke-linecap="round" transform="translate(5.454545, 6.000000) scale(-1, 1) translate(-5.454545, -6.000000) "></path>
                            <path d="M6.96,0.24 L11.28,0.24 L11.28,4.56 C11.28,4.82085513 11.0685351,5.03232 10.80768,5.03232 L10.80768,5.03232 C10.5468249,5.03232 10.33536,4.82085513 10.33536,4.56 L10.33536,1.86432 L5.09952,7.10016 C4.91183155,7.28784845 4.60752845,7.28784845 4.41984,7.10016 L4.41984,7.10016 C4.23215155,6.91247155 4.23215155,6.60816845 4.41984,6.42048 L9.65568,1.18464 L6.96,1.18464 C6.69914487,1.18464 6.48768,0.973175133 6.48768,0.71232 L6.48768,0.71232 C6.48768,0.451464867 6.69914487,0.24 6.96,0.24 Z" id="" stroke-width="0.5" fill="#36C2A9" fill-rule="nonzero"></path>
                        </g>
                    </g>
                </g>
            </g>
        </g>
    </g>
</svg>