<?xml version="1.0" encoding="UTF-8"?>
<svg width="12px" height="12px" viewBox="0 0 12 12" version="1.1" xmlns="http://www.w3.org/2000/svg" xmlns:xlink="http://www.w3.org/1999/xlink">
    <!-- Generator: Sketch 54.1 (76490) - https://sketchapp.com -->
    <title>iconfinder_info-outline_326659</title>
    <desc>Created with Sketch.</desc>
    <g id="Page-1" stroke="none" stroke-width="1" fill="none" fill-rule="evenodd">
        <g id="Health-Quotes-Copy" transform="translate(-288.000000, -160.000000)" fill="#696969" fill-rule="nonzero">
            <g id="iconfinder_info-outline_326659" transform="translate(288.000000, 160.000000)">
                <path d="M5.4,9 L6.6,9 L6.6,5.4 L5.4,5.4 L5.4,9 L5.4,9 Z M6,0 C2.7,0 0,2.7 0,6 C0,9.3 2.7,12 6,12 C9.3,12 12,9.3 12,6 C12,2.7 9.3,0 6,0 L6,0 Z M6,10.8 C3.36,10.8 1.2,8.64 1.2,6 C1.2,3.36 3.36,1.2 6,1.2 C8.64,1.2 10.8,3.36 10.8,6 C10.8,8.64 8.64,10.8 6,10.8 L6,10.8 Z M5.4,4.2 L6.6,4.2 L6.6,3 L5.4,3 L5.4,4.2 L5.4,4.2 Z" id="Shape"></path>
            </g>
        </g>
    </g>
</svg>