<?xml version="1.0" encoding="UTF-8"?>
<svg width="20px" height="20px" viewBox="0 0 20 20" version="1.1" xmlns="http://www.w3.org/2000/svg" xmlns:xlink="http://www.w3.org/1999/xlink">
    <!-- Generator: Sketch 54.1 (76490) - https://sketchapp.com -->
    <title>sorting</title>
    <desc>Created with Sketch.</desc>
    <g id="Page-1" stroke="none" stroke-width="1" fill="none" fill-rule="evenodd">
        <g id="Health-Quotes-Copy" transform="translate(-145.000000, -156.000000)" fill="#696969" fill-rule="nonzero">
            <g id="Group" transform="translate(135.000000, 141.000000)">
                <g id="sorting" transform="translate(11.000000, 15.000000)">
                    <path d="M16.6153846,2.94715535 C17.8097727,3.26432877 18.6923077,4.38297184 18.6923077,5.71428571 C18.6923077,7.04559957 17.8097727,8.16424264 16.6153846,8.48141607 L16.6153846,18.5690717 C16.6153846,18.9648625 16.3080936,19.2857143 15.9230769,19.2857143 C15.540726,19.2857143 15.2307692,18.9633724 15.2307692,18.5690717 L15.2307692,8.48141607 C14.0363812,8.16424264 13.1538462,7.04559957 13.1538462,5.71428571 C13.1538462,4.38297184 14.0363812,3.26432877 15.2307692,2.94715535 L15.2307692,1.43092831 C15.2307692,1.03513754 15.5380602,0.714285714 15.9230769,0.714285714 C16.3054279,0.714285714 16.6153846,1.03662764 16.6153846,1.43092831 L16.6153846,2.94715535 Z M8.30769231,17.0528446 C7.11330425,16.7356712 6.23076923,15.6170281 6.23076923,14.2857143 C6.23076923,12.9544004 7.11330425,11.8357574 8.30769231,11.5185839 L8.30769231,1.43092831 C8.30769231,1.03513754 8.61498332,0.714285714 9,0.714285714 C9.38235095,0.714285714 9.69230769,1.03662764 9.69230769,1.43092831 L9.69230769,11.5185839 C10.8866958,11.8357574 11.7692308,12.9544004 11.7692308,14.2857143 C11.7692308,15.6170281 10.8866958,16.7356712 9.69230769,17.0528446 L9.69230769,18.5690717 C9.69230769,18.9648625 9.38501668,19.2857143 9,19.2857143 C8.61764905,19.2857143 8.30769231,18.9633724 8.30769231,18.5690717 L8.30769231,17.0528446 Z M2.76923077,2.94715535 C3.96361884,3.26432877 4.84615385,4.38297184 4.84615385,5.71428571 C4.84615385,7.04559957 3.96361884,8.16424264 2.76923077,8.48141607 L2.76923077,18.5690717 C2.76923077,18.9648625 2.46193974,19.2857143 2.07692308,19.2857143 C1.6945721,19.2857143 1.38461538,18.9633724 1.38461538,18.5690717 L1.38461538,8.48141607 C0.190227316,8.16424264 -0.692307692,7.04559957 -0.692307692,5.71428571 C-0.692307692,4.38297184 0.190227316,3.26432877 1.38461538,2.94715535 L1.38461538,1.43092831 C1.38461538,1.03513754 1.69190641,0.714285714 2.07692308,0.714285714 C2.45927406,0.714285714 2.76923077,1.03662764 2.76923077,1.43092831 L2.76923077,2.94715535 Z M2.07692308,7.14285714 C2.84162504,7.14285714 3.46153846,6.50326393 3.46153846,5.71428571 C3.46153846,4.9253075 2.84162504,4.28571429 2.07692308,4.28571429 C1.31222112,4.28571429 0.692307692,4.9253075 0.692307692,5.71428571 C0.692307692,6.50326393 1.31222112,7.14285714 2.07692308,7.14285714 Z M9,12.8571429 C8.23529804,12.8571429 7.61538462,13.4967361 7.61538462,14.2857143 C7.61538462,15.0746925 8.23529804,15.7142857 9,15.7142857 C9.76470196,15.7142857 10.3846154,15.0746925 10.3846154,14.2857143 C10.3846154,13.4967361 9.76470196,12.8571429 9,12.8571429 Z M15.9230769,7.14285714 C16.6877789,7.14285714 17.3076923,6.50326393 17.3076923,5.71428571 C17.3076923,4.9253075 16.6877789,4.28571429 15.9230769,4.28571429 C15.158375,4.28571429 14.5384615,4.9253075 14.5384615,5.71428571 C14.5384615,6.50326393 15.158375,7.14285714 15.9230769,7.14285714 Z" id="Shape" transform="translate(9.000000, 10.000000) rotate(90.000000) translate(-9.000000, -10.000000) "></path>
                </g>
            </g>
        </g>
    </g>
</svg>