<?xml version="1.0" encoding="UTF-8"?>
<svg width="261px" height="352px" viewBox="0 0 261 352" version="1.1" xmlns="http://www.w3.org/2000/svg" xmlns:xlink="http://www.w3.org/1999/xlink">
    <!-- Generator: Sketch 53.2 (72643) - https://sketchapp.com -->
    <title>call-center</title>
    <desc>Created with Sketch.</desc>
    <g id="Page-1" stroke="none" stroke-width="1" fill="none" fill-rule="evenodd">
        <g id="call-center" fill-rule="nonzero">
            <path d="M212.763557,272 L48.0199483,272 C32.8572726,272 20.5635739,284.318222 20.5635739,299.51383 L20.5635739,344.907216 L240.219931,344.907216 L240.219931,299.51383 C240.219931,284.318222 227.926233,272 212.763557,272 L212.763557,272 Z" id="Path" fill="#F8E71C"></path>
            <path d="M48.604811,116.838488 L48.604811,157.950373 C48.604811,193.853681 71.6095605,224.262022 103.4419,235.495523 L103.4419,271.69593 C103.4419,286.831848 115.718061,299.106529 130.859107,299.106529 C146.000152,299.106529 158.27899,286.831848 158.27899,271.69593 L158.27899,235.495523 C190.170234,224.23258 213.113402,193.79212 213.113402,157.950373 L213.113402,116.838488 C180.301112,116.838488 86.1615641,116.838488 48.604811,116.838488 Z" id="Path" fill="#FED2A4"></path>
            <path d="M226.712487,116.838488 L212.948456,116.838488 L201.896907,199.092784 L226.712487,199.092784 C241.914752,199.092784 254.24055,186.813945 254.24055,171.6729 L254.24055,144.255694 C254.24055,129.085197 241.890558,116.838488 226.712487,116.838488 L226.712487,116.838488 Z" id="Path" fill="#F8E71C"></path>
            <g id="Group" transform="translate(48.604811, 33.649485)" fill="#575972">
                <polygon id="Path" points="153.743527 165.537589 153.738164 165.537589 109.843238 202.058086 109.843238 238.347832 164.762175 238.347832 164.762175 165.537589"></polygon>
                <path d="M0,83.1082143 C0,37.5857126 36.8879347,0.67883944 82.3810875,0.67883944 C127.874241,0.67883944 164.762175,37.5776629 164.762175,83.1082143 C131.899306,83.1082143 37.6146454,83.1082143 0,83.1082143 Z" id="Path"></path>
                <polygon id="Path" points="11.0266929 165.537589 0 165.537589 0 238.347832 54.9216188 238.347832 54.9216188 202.058086"></polygon>
            </g>
            <path d="M47.8329281,116.838488 L34.0696039,116.838488 C18.8600556,116.838488 6.54295533,129.120004 6.54295533,144.255694 L6.54295533,171.6729 C6.54295533,186.813945 18.8681196,199.092784 34.0696039,199.092784 L58.8865979,199.092784 L47.8329281,116.838488 Z" id="Path" fill="#F8E71C"></path>
            <path d="M205.635739,312.659794 C205.635739,316.529156 208.776686,319.670103 212.646048,319.670103 C216.515411,319.670103 219.656357,316.529156 219.656357,312.659794 C219.656357,308.787693 216.515411,305.649485 212.646048,305.649485 C208.776686,305.649485 205.635739,308.787693 205.635739,312.659794 Z" id="Path" fill="#000000"></path>
            <path d="M171.5189,151.42268 C175.388263,151.42268 178.52921,148.281733 178.52921,144.412371 C178.52921,140.543008 175.388263,137.402062 171.5189,137.402062 C167.6468,137.402062 164.508591,140.543008 164.508591,144.412371 C164.508591,148.281733 167.6468,151.42268 171.5189,151.42268 Z" id="Path" fill="#000000"></path>
            <path d="M89.2646048,137.402062 C85.3952429,137.402062 82.2542955,140.543008 82.2542955,144.412371 C82.2542955,148.281733 85.3952429,151.42268 89.2646048,151.42268 C93.1339675,151.42268 96.2749141,148.281733 96.2749141,144.412371 C96.2749141,140.543008 93.1339675,137.402062 89.2646048,137.402062 Z" id="Path" fill="#000000"></path>
            <path d="M226.470591,205.925176 C245.390947,205.925176 260.783505,190.526173 260.783505,171.601194 L260.783505,144.144153 C260.783505,133.298085 255.607081,123.125038 247.050298,116.689794 C247.034214,51.3506174 194.066334,0.0590420438 130.391753,5.23081164e-05 C63.9533734,-0.0616188135 15.2183132,54.4180836 13.7600144,116.673705 C5.1898282,123.108949 0,133.298085 0,144.144153 L0,171.601194 C0,190.526173 15.392559,205.925176 34.3129137,205.925176 L41.1754964,205.925176 L41.1754964,265.649601 C25.5336329,268.837729 13.7251655,282.705679 13.7251655,299.281795 L13.7251655,344.585912 C13.7251655,348.377343 16.7999244,351.450172 20.5877482,351.450172 L240.195757,351.450172 C243.986262,351.450172 247.05834,348.377343 247.05834,344.585912 L247.05834,299.281795 C247.05834,282.705679 235.252553,268.837729 219.608009,265.649601 L219.608009,205.925176 L226.470591,205.925176 Z M109.804004,244.718971 C116.519149,246.309012 123.411219,247.110736 130.391753,247.110736 C137.372286,247.110736 144.264357,246.309012 150.979501,244.718971 L150.979501,271.822073 C150.979501,283.177597 141.744502,292.414853 130.391753,292.414853 C119.039004,292.414853 109.804004,283.177597 109.804004,271.822073 L109.804004,244.718971 Z M130.391753,233.382216 C88.5380401,233.382216 54.9033424,199.401447 54.9033424,157.872673 L54.9033424,123.551373 L205.882843,123.551373 L205.882843,157.872673 C205.882843,175.288052 199.918294,192.255645 188.613797,205.925176 L130.391753,205.925176 C126.603929,205.925176 123.52917,208.998004 123.52917,212.789436 C123.52917,216.578185 126.603929,219.645652 130.391753,219.645652 L173.784185,219.645652 C161.016028,228.636223 146.014851,233.382216 130.391753,233.382216 L130.391753,233.382216 Z M171.56993,82.3631298 C167.779425,82.3631298 164.707347,85.4386403 164.707347,89.2300719 L164.707347,109.822852 L137.254335,109.822852 L137.254335,89.2300719 C137.254335,85.4386403 134.182258,82.3631298 130.391753,82.3631298 C126.603929,82.3631298 123.52917,85.4386403 123.52917,89.2300719 L123.52917,109.822852 L96.0788389,109.822852 L96.0788389,89.2300719 C96.0788389,85.4386403 93.0067612,82.3631298 89.2162561,82.3631298 C85.4257518,82.3631298 82.3536734,85.4386403 82.3536734,89.2300719 L82.3536734,109.822852 L55.2169844,109.822852 C58.696528,71.391039 91.0793403,41.177569 130.391753,41.177569 C170.41455,41.177569 202.186163,71.9782552 205.571883,109.822852 L178.432512,109.822852 L178.432512,89.2300719 C178.432512,85.4386403 175.360435,82.3631298 171.56993,82.3631298 Z M247.05834,171.601194 C247.05834,182.956717 237.823341,192.196655 226.470591,192.196655 L212.75883,192.196655 C217.259719,181.380082 219.608009,169.702796 219.608009,157.872673 L219.608009,123.551373 L226.470591,123.551373 C237.831383,123.551373 247.05834,132.769859 247.05834,144.144153 L247.05834,171.601194 Z M130.391753,13.7366168 C184.254986,13.8277824 229.816101,55.399458 233.132122,110.47442 C230.947355,110.042723 228.714335,109.82017 226.470591,109.82017 L219.347981,109.82017 C215.873799,63.8349905 177.494269,27.4490487 130.391753,27.4490487 C83.5063732,27.4490487 44.9525975,63.8108585 41.4382043,109.82017 L34.3129137,109.82017 C32.1308265,109.82017 29.9648238,110.03736 27.8336707,110.444926 C32.1871216,58.4079348 74.0033047,13.6400882 130.391753,13.7366168 L130.391753,13.7366168 Z M13.7251655,171.601194 L13.7251655,144.144153 C13.7251655,132.962916 22.7725159,123.551373 34.3129137,123.551373 L41.1754964,123.551373 L41.1754964,157.872673 C41.1754964,169.702796 43.526467,181.382764 48.0246759,192.196655 L34.3129137,192.196655 C22.9601643,192.196655 13.7251655,182.956717 13.7251655,171.601194 Z M55.2169844,205.925176 C65.1141148,221.393893 79.4156302,233.301775 96.0788389,240.265246 L96.0788389,264.957813 L54.9033424,264.957813 L54.9033424,205.925176 L55.2169844,205.925176 Z M233.333174,299.281795 L233.333174,337.721652 L27.450331,337.721652 L27.450331,299.281795 C27.450331,287.92627 36.688011,278.686333 48.0380792,278.686333 L96.7677777,278.686333 C99.9578067,294.334701 113.819688,306.146055 130.391753,306.146055 C146.963818,306.146055 160.82838,294.334701 164.015727,278.686333 L212.745426,278.686333 C224.098175,278.686333 233.333174,287.92627 233.333174,299.281795 Z M205.882843,264.957813 L164.707347,264.957813 L164.707347,240.259883 C176.942046,235.149226 187.991876,227.308955 196.873023,217.374547 C196.921276,217.32092 196.966847,217.267293 197.012419,217.213666 C197.033865,217.189534 197.057991,217.165402 197.079437,217.138588 C200.202448,213.63138 203.046667,209.872125 205.571883,205.925176 L205.882843,205.925176 L205.882843,264.957813 Z" id="Shape" fill="#000000"></path>
            <path d="M185.773196,305.649485 L172.219931,305.649485 C168.476901,305.649485 165.443299,308.787693 165.443299,312.659794 C165.443299,316.529156 168.476901,319.670103 172.219931,319.670103 L185.773196,319.670103 C189.51358,319.670103 192.549828,316.529156 192.549828,312.659794 C192.549828,308.787693 189.516227,305.649485 185.773196,305.649485 Z" id="Path" fill="#000000"></path>
            <path d="M154.893448,176.861771 C158.06268,174.794666 158.918937,170.610422 156.807912,167.513714 C154.696886,164.411738 150.412905,163.576996 147.24906,165.641469 C137.008971,172.316772 123.774672,172.316772 113.534583,165.641469 C110.368045,163.576996 106.086756,164.414371 103.975731,167.513714 C101.864706,170.610422 102.720963,174.794666 105.887501,176.861771 C113.329943,181.712229 121.860209,184.137457 130.390475,184.137457 C138.920741,184.137457 147.451007,181.712229 154.893448,176.861771 L154.893448,176.861771 Z" id="Path" fill="#000000"></path>
        </g>
    </g>
</svg>